<svg width="1900" height="969" xmlns="http://www.w3.org/2000/svg" viewBox="0 0 1900 969">
<defs>
  <style>
    @import url('https://fonts.googleapis.com/css2?family=Lexend:wght@300;400;600;700&amp;display=swap');
    circle:hover { opacity: 1 !important; r: 6; }
    rect.bar-segment:hover { opacity: 1 !important; }
  </style>

  <linearGradient id="bg" x1="0%" y1="0%" x2="55%" y2="100%">
    <stop offset="0%"   stop-color="#010c1e"/>
    <stop offset="50%"  stop-color="#010f27"/>
    <stop offset="100%" stop-color="#000a18"/>
  </linearGradient>
  <linearGradient id="areaFill" x1="0%" y1="0%" x2="0%" y2="100%">
    <stop offset="0%"   stop-color="#4a90e2" stop-opacity="0.5"/>
    <stop offset="55%"  stop-color="#1a3f7a" stop-opacity="0.18"/>
    <stop offset="100%" stop-color="#000a18" stop-opacity="0"/>
  </linearGradient>
  <linearGradient id="gCommits" x1="0%" y1="0%" x2="100%" y2="0%">
    <stop offset="0%"   stop-color="#ff8c42"/>
    <stop offset="100%" stop-color="#ffd0a0"/>
  </linearGradient>
  <linearGradient id="gChanges" x1="0%" y1="0%" x2="100%" y2="0%">
    <stop offset="0%"   stop-color="#00d4f5" stop-opacity="0.8"/>
    <stop offset="50%"  stop-color="#00d4f5"/>
    <stop offset="100%" stop-color="#80eeff"/>
  </linearGradient>
  <linearGradient id="gBorder" x1="0%" y1="0%" x2="100%" y2="100%">
    <stop offset="0%"   stop-color="#1840a0" stop-opacity="0.9"/>
    <stop offset="50%"  stop-color="#3b82f6" stop-opacity="0.6"/>
    <stop offset="100%" stop-color="#60a5fa" stop-opacity="0.9"/>
  </linearGradient>
  <linearGradient id="gHeader" x1="0%" y1="0%" x2="100%" y2="0%">
    <stop offset="0%"   stop-color="#010c1e" stop-opacity="0"/>
    <stop offset="20%"  stop-color="#091c3e" stop-opacity="0.92"/>
    <stop offset="80%"  stop-color="#091c3e" stop-opacity="0.92"/>
    <stop offset="100%" stop-color="#010c1e" stop-opacity="0"/>
  </linearGradient>
  <linearGradient id="gAddBar" x1="0%" y1="0%" x2="0%" y2="100%">
    <stop offset="0%"   stop-color="#22c55e" stop-opacity="0.95"/>
    <stop offset="100%" stop-color="#22c55e" stop-opacity="0.65"/>
  </linearGradient>
  <linearGradient id="gDelBar" x1="0%" y1="0%" x2="0%" y2="100%">
    <stop offset="0%"   stop-color="#ef4444" stop-opacity="0.9"/>
    <stop offset="100%" stop-color="#ef4444" stop-opacity="0.6"/>
  </linearGradient>

  <filter id="glowOrange" x="-120%" y="-120%" width="340%" height="340%">
    <feGaussianBlur stdDeviation="4" result="b"/>
    <feMerge><feMergeNode in="b"/><feMergeNode in="SourceGraphic"/></feMerge>
  </filter>
  <filter id="glowCyan" x="-120%" y="-120%" width="340%" height="340%">
    <feGaussianBlur stdDeviation="3.5" result="b"/>
    <feMerge><feMergeNode in="b"/><feMergeNode in="SourceGraphic"/></feMerge>
  </filter>
  <filter id="glowTitle">
    <feGaussianBlur stdDeviation="5" result="b"/>
    <feMerge><feMergeNode in="b"/><feMergeNode in="b"/><feMergeNode in="SourceGraphic"/></feMerge>
  </filter>
  <filter id="glowLine" x="-6%" y="-120%" width="112%" height="340%">
    <feGaussianBlur stdDeviation="4.5" result="b"/>
    <feMerge><feMergeNode in="b"/><feMergeNode in="SourceGraphic"/></feMerge>
  </filter>
  <filter id="glowMA" x="-6%" y="-120%" width="112%" height="340%">
    <feGaussianBlur stdDeviation="3" result="b"/>
    <feMerge><feMergeNode in="b"/><feMergeNode in="SourceGraphic"/></feMerge>
  </filter>

  <pattern id="diamondTile" x="0" y="0" width="30" height="30" patternUnits="userSpaceOnUse">
    <path d="M15 2 L28 15 L15 28 L2 15 Z"
      fill="none" stroke="#0d2464" stroke-width="0.4" stroke-opacity="0.25"/>
  </pattern>

  <clipPath id="chartClip">
    <rect x="86" y="130" width="1736" height="360"/>
  </clipPath>
</defs>

<!-- ════ BACKGROUND ════ -->
<rect width="1900" height="969" fill="url(#bg)" rx="16"/>
<rect width="1900" height="969" fill="url(#diamondTile)" rx="16"/>

<!-- ════ BORDERS ════ -->
<rect width="1900" height="969" fill="none" rx="16" stroke="url(#gBorder)" stroke-width="2.2"/>
<rect x="5" y="5" width="1890" height="959" fill="none" rx="13"
  stroke="#1840a0" stroke-width="0.7" stroke-opacity="0.35"/>

<!-- ════ HEADER ════ -->
<rect x="0" y="0" width="1900" height="122" fill="url(#gHeader)" rx="16"/>
<line x1="24" y1="118.0" x2="1876.0" y2="118.0"
    stroke="url(#gBorder)" stroke-width="0.8" stroke-opacity="0.5"/>

<!-- ════ TITLE ════ -->
<text x="954.0" y="44" font-size="18" font-weight="600" fill="#cce8ff"
  text-anchor="middle" font-family="'Lexend','Segoe UI',sans-serif"
  filter="url(#glowTitle)" letter-spacing="5">⬡  COMMIT  ANALYTICS  ⬡</text>
<text x="954.0" y="62" font-size="9.5" fill="#3d7ed4" text-anchor="middle"
  font-family="'Lexend','Segoe UI',sans-serif" letter-spacing="3.5" font-weight="300">kieran-lucas/oop-course-project-uet</text>

<!-- ════ STATS BADGE ════ -->

    <rect x="1674" y="8" width="142" height="92" rx="10"
      fill="#030e26" fill-opacity="0.94" stroke="#2563eb" stroke-width="1.2"/>
    <text x="1745" y="24" font-size="8" fill="#3d7ed4"
      text-anchor="middle" font-family="'Lexend',sans-serif" letter-spacing="2" font-weight="400">TOTAL  COMMITS</text>
    <text x="1745" y="52" font-size="28" font-weight="700" fill="#cce8ff"
      text-anchor="middle" font-family="'Lexend',sans-serif" filter="url(#glowTitle)">511</text>
    <line x1="1690" y1="60" x2="1800" y2="60"
      stroke="#1a3f7a" stroke-width="0.8" stroke-opacity="0.5"/>
    <text x="1721" y="74" font-size="9" fill="#22c55e"
      text-anchor="middle" font-family="'Lexend',sans-serif" font-weight="400">+194.9k</text>
    <text x="1769" y="74" font-size="9" fill="#ef4444"
      text-anchor="middle" font-family="'Lexend',sans-serif" font-weight="400">-169.7k</text>
    <text x="1745" y="90" font-size="8" fill="#3d7ed4"
      text-anchor="middle" font-family="'Lexend',sans-serif" font-weight="300">52 active days · 1.8k files</text>

<!-- ════ LEGEND ════ -->
<g><rect x="598.0" y="90.0" width="24" height="12" rx="3"
        fill="#4a90e2" fill-opacity="0.45" stroke="#4a90e2" stroke-width="1.2"/><text x="629.0" y="100.0" font-size="11" fill="#93c5fd"
      font-family="'Lexend','Segoe UI',sans-serif" font-weight="400">Total Lines</text><line x1="734.0" y1="97.0" x2="758.0" y2="97.0"
        stroke="#ff8c42" stroke-width="2.5" stroke-linecap="round"/><circle cx="746.0" cy="97.0" r="3.5"
        fill="#ff8c42" stroke="#fff" stroke-width="0.6" stroke-opacity="0.3"/><text x="765.0" y="100.0" font-size="11" fill="#93c5fd"
      font-family="'Lexend','Segoe UI',sans-serif" font-weight="400">Commits</text><line x1="842.0" y1="97.0" x2="866.0" y2="97.0"
        stroke="#00d4f5" stroke-width="2.5" stroke-linecap="round"/><circle cx="854.0" cy="97.0" r="3.5"
        fill="#00d4f5" stroke="#fff" stroke-width="0.6" stroke-opacity="0.3"/><text x="873.0" y="100.0" font-size="11" fill="#93c5fd"
      font-family="'Lexend','Segoe UI',sans-serif" font-weight="400">Chg/Commit</text><rect x="977.0" y="90.0" width="12" height="12" rx="2"
        fill="#22c55e" opacity="0.85"/><text x="1002.0" y="100.0" font-size="11" fill="#93c5fd"
      font-family="'Lexend','Segoe UI',sans-serif" font-weight="400">Additions</text><rect x="1099.0" y="90.0" width="12" height="12" rx="2"
        fill="#ef4444" opacity="0.85"/><text x="1124.0" y="100.0" font-size="11" fill="#93c5fd"
      font-family="'Lexend','Segoe UI',sans-serif" font-weight="400">Deletions</text><line x1="1215.0" y1="97.0" x2="1239.0" y2="97.0"
        stroke="#a78bfa" stroke-width="2" stroke-dasharray="5,3" stroke-linecap="round"/><text x="1246.0" y="100.0" font-size="11" fill="#93c5fd"
      font-family="'Lexend','Segoe UI',sans-serif" font-weight="400">7-day MA</text></g>

<!-- ════ AXIS LABELS ════ -->
<text x="16" y="310.0" font-size="9.5" fill="#4a90e2"
    text-anchor="middle" font-family="'Lexend','Segoe UI',sans-serif" letter-spacing="3" font-weight="300"
    transform="rotate(-90, 16, 310.0)">LINES</text>
<text x="1886.0" y="310.0" font-size="9.5"
    fill="#ff8c42" text-anchor="middle" font-family="'Lexend','Segoe UI',sans-serif"
    letter-spacing="3" font-weight="300" opacity="0.8"
    transform="rotate(90, 1886.0, 310.0)">COMMITS</text>

<!-- ════ GRID + Y-LABELS ════ -->
<line x1="86" y1="490.0" x2="1822" y2="490.0"
      stroke="#1a3f7a" stroke-width="1.4"
      stroke-opacity="0.9" stroke-dasharray="none"/><line x1="86" y1="418.0" x2="1822" y2="418.0"
      stroke="#1a3f7a" stroke-width="0.5"
      stroke-opacity="0.3" stroke-dasharray="6,6"/><line x1="86" y1="346.0" x2="1822" y2="346.0"
      stroke="#1a3f7a" stroke-width="0.5"
      stroke-opacity="0.3" stroke-dasharray="6,6"/><line x1="86" y1="274.0" x2="1822" y2="274.0"
      stroke="#1a3f7a" stroke-width="0.5"
      stroke-opacity="0.3" stroke-dasharray="6,6"/><line x1="86" y1="202.0" x2="1822" y2="202.0"
      stroke="#1a3f7a" stroke-width="0.5"
      stroke-opacity="0.3" stroke-dasharray="6,6"/><line x1="86" y1="130.0" x2="1822" y2="130.0"
      stroke="#1a3f7a" stroke-width="0.5"
      stroke-opacity="0.3" stroke-dasharray="6,6"/>
<text x="74" y="494.0" font-size="11" fill="#5aa8ff"
      text-anchor="end" font-family="'Lexend','Segoe UI',sans-serif" font-weight="300">0</text><text x="74" y="422.0" font-size="11" fill="#5aa8ff"
      text-anchor="end" font-family="'Lexend','Segoe UI',sans-serif" font-weight="300">20.0k</text><text x="74" y="350.0" font-size="11" fill="#5aa8ff"
      text-anchor="end" font-family="'Lexend','Segoe UI',sans-serif" font-weight="300">40.0k</text><text x="74" y="278.0" font-size="11" fill="#5aa8ff"
      text-anchor="end" font-family="'Lexend','Segoe UI',sans-serif" font-weight="300">60.0k</text><text x="74" y="206.0" font-size="11" fill="#5aa8ff"
      text-anchor="end" font-family="'Lexend','Segoe UI',sans-serif" font-weight="300">80.0k</text><text x="74" y="134.0" font-size="11" fill="#5aa8ff"
      text-anchor="end" font-family="'Lexend','Segoe UI',sans-serif" font-weight="300">100.0k</text>
<text x="1834" y="494.0" font-size="11" fill="#ff8c42"
      text-anchor="start" font-family="'Lexend','Segoe UI',sans-serif" font-weight="300" opacity="0.85">0</text><text x="1834" y="404.0" font-size="11" fill="#ff8c42"
      text-anchor="start" font-family="'Lexend','Segoe UI',sans-serif" font-weight="300" opacity="0.85">20</text><text x="1834" y="314.0" font-size="11" fill="#ff8c42"
      text-anchor="start" font-family="'Lexend','Segoe UI',sans-serif" font-weight="300" opacity="0.85">40</text><text x="1834" y="224.0" font-size="11" fill="#ff8c42"
      text-anchor="start" font-family="'Lexend','Segoe UI',sans-serif" font-weight="300" opacity="0.85">60</text><text x="1834" y="134.0" font-size="11" fill="#ff8c42"
      text-anchor="start" font-family="'Lexend','Segoe UI',sans-serif" font-weight="300" opacity="0.85">80</text>

<!-- ════ AXIS LINES ════ -->
<line x1="86" y1="130" x2="86" y2="490"
  stroke="#1a3f7a" stroke-width="1.2" stroke-opacity="0.65"/>
<line x1="86" y1="490" x2="1822" y2="490"
  stroke="#1a3f7a" stroke-width="1.4" stroke-opacity="0.8"/>
<line x1="1822" y1="130" x2="1822" y2="490"
  stroke="#ff8c42" stroke-width="0.9" stroke-opacity="0.28"/>

<!-- ════ X-AXIS ════ -->
<text x="86.0" y="514" font-size="10" fill="#5aa8ff"
      text-anchor="end" font-family="'Lexend','Segoe UI',sans-serif" font-weight="300"
      transform="rotate(-42, 86.0, 514)">10 Mar</text><text x="228.3" y="514" font-size="10" fill="#5aa8ff"
      text-anchor="end" font-family="'Lexend','Segoe UI',sans-serif" font-weight="300"
      transform="rotate(-42, 228.3, 514)">15 Mar</text><text x="370.6" y="514" font-size="10" fill="#5aa8ff"
      text-anchor="end" font-family="'Lexend','Segoe UI',sans-serif" font-weight="300"
      transform="rotate(-42, 370.6, 514)">20 Mar</text><text x="512.9" y="514" font-size="10" fill="#5aa8ff"
      text-anchor="end" font-family="'Lexend','Segoe UI',sans-serif" font-weight="300"
      transform="rotate(-42, 512.9, 514)">25 Mar</text><text x="655.2" y="514" font-size="10" fill="#5aa8ff"
      text-anchor="end" font-family="'Lexend','Segoe UI',sans-serif" font-weight="300"
      transform="rotate(-42, 655.2, 514)">30 Mar</text><text x="797.5" y="514" font-size="10" fill="#5aa8ff"
      text-anchor="end" font-family="'Lexend','Segoe UI',sans-serif" font-weight="300"
      transform="rotate(-42, 797.5, 514)">4 Apr</text><text x="939.8" y="514" font-size="10" fill="#5aa8ff"
      text-anchor="end" font-family="'Lexend','Segoe UI',sans-serif" font-weight="300"
      transform="rotate(-42, 939.8, 514)">9 Apr</text><text x="1082.1" y="514" font-size="10" fill="#5aa8ff"
      text-anchor="end" font-family="'Lexend','Segoe UI',sans-serif" font-weight="300"
      transform="rotate(-42, 1082.1, 514)">14 Apr</text><text x="1224.4" y="514" font-size="10" fill="#5aa8ff"
      text-anchor="end" font-family="'Lexend','Segoe UI',sans-serif" font-weight="300"
      transform="rotate(-42, 1224.4, 514)">19 Apr</text><text x="1366.7" y="514" font-size="10" fill="#5aa8ff"
      text-anchor="end" font-family="'Lexend','Segoe UI',sans-serif" font-weight="300"
      transform="rotate(-42, 1366.7, 514)">24 Apr</text><text x="1509.0" y="514" font-size="10" fill="#5aa8ff"
      text-anchor="end" font-family="'Lexend','Segoe UI',sans-serif" font-weight="300"
      transform="rotate(-42, 1509.0, 514)">29 Apr</text><text x="1651.2" y="514" font-size="10" fill="#5aa8ff"
      text-anchor="end" font-family="'Lexend','Segoe UI',sans-serif" font-weight="300"
      transform="rotate(-42, 1651.2, 514)">4 May</text><text x="1793.5" y="514" font-size="10" fill="#5aa8ff"
      text-anchor="end" font-family="'Lexend','Segoe UI',sans-serif" font-weight="300"
      transform="rotate(-42, 1793.5, 514)">9 May</text>

<!-- ════ CHART CONTENT ════ -->
<g clip-path="url(#chartClip)">
  <!-- Total lines: area + stroke -->
  <path d="M 86.00 490.00 C 90.74 490.00, 104.97 490.00, 114.46 490.00 C 123.95 490.00, 133.43 490.00, 142.92 490.00 C 152.40 490.00, 161.89 490.00, 171.38 490.00 C 180.86 490.00, 190.35 490.00, 199.84 490.00 C 209.32 490.00, 218.81 490.00, 228.30 490.00 C 237.78 490.00, 247.27 490.00, 256.75 490.00 C 266.24 489.98, 275.73 489.92, 285.21 489.91 C 294.70 489.89, 304.19 489.91, 313.67 489.91 C 323.16 489.91, 332.64 489.94, 342.13 489.91 C 351.62 489.87, 361.10 489.72, 370.59 489.69 C 380.08 489.65, 389.56 489.70, 399.05 489.69 C 408.54 489.67, 418.02 489.62, 427.51 489.61 C 436.99 489.59, 446.48 490.00, 455.97 489.61 C 465.45 488.99, 474.94 486.51, 484.43 485.89 C 493.91 485.28, 503.40 485.91, 512.89 485.91 C 522.37 485.91, 531.86 485.90, 541.34 485.90 C 550.83 485.90, 560.32 490.00, 569.80 485.89 C 579.29 443.28, 588.78 274.96, 598.26 230.27 C 607.75 185.59, 617.23 219.88, 626.72 217.78 C 636.21 215.68, 645.69 218.05, 655.18 217.69 C 664.67 217.33, 674.15 216.22, 683.64 215.61 C 693.13 215.00, 702.61 214.42, 712.10 214.05 C 721.58 213.67, 731.07 213.51, 740.56 213.37 C 750.04 213.23, 759.53 213.54, 769.02 213.21 C 778.50 212.88, 787.99 211.70, 797.48 211.39 C 806.96 211.09, 816.45 211.39, 825.93 211.39 C 835.42 211.39, 844.91 211.45, 854.39 211.38 C 863.88 211.31, 873.37 211.03, 882.85 210.96 C 892.34 210.89, 901.83 210.96, 911.31 210.96 C 920.80 210.95, 930.28 210.95, 939.77 210.94 C 949.26 210.94, 958.74 210.92, 968.23 210.92 C 977.72 210.92, 987.20 211.38, 996.69 210.94 C 1006.17 210.50, 1015.66 208.73, 1025.15 208.29 C 1034.63 207.84, 1044.12 208.30, 1053.61 208.29 C 1063.09 208.27, 1072.58 208.21, 1082.07 208.20 C 1091.55 208.18, 1101.04 208.18, 1110.52 208.17 C 1120.01 208.17, 1129.50 208.16, 1138.98 208.16 C 1148.47 208.15, 1157.96 208.15, 1167.44 208.15 C 1176.93 208.14, 1186.42 208.13, 1195.90 208.12 C 1205.39 208.12, 1214.87 208.20, 1224.36 208.11 C 1233.85 208.01, 1243.33 207.65, 1252.82 207.56 C 1262.31 207.47, 1271.79 207.55, 1281.28 207.55 C 1290.77 207.55, 1300.25 207.54, 1309.74 207.54 C 1319.22 207.53, 1328.71 207.53, 1338.20 207.52 C 1347.68 207.52, 1357.17 207.51, 1366.66 207.50 C 1376.14 207.49, 1385.63 207.49, 1395.11 207.49 C 1404.60 207.49, 1414.09 207.49, 1423.57 207.49 C 1433.06 207.49, 1442.55 207.50, 1452.03 207.48 C 1461.52 207.46, 1471.01 207.41, 1480.49 207.39 C 1489.98 207.37, 1499.46 207.38, 1508.95 207.37 C 1518.44 207.37, 1527.92 207.71, 1537.41 207.35 C 1546.90 207.00, 1556.38 205.59, 1565.87 205.24 C 1575.36 204.89, 1584.84 211.15, 1594.33 205.24 C 1603.81 199.33, 1613.30 135.79, 1622.79 169.76 C 1632.27 203.74, 1641.76 369.82, 1651.25 409.09 C 1660.73 448.36, 1670.22 406.13, 1679.70 405.39 C 1689.19 404.64, 1698.68 405.21, 1708.16 404.61 C 1717.65 404.02, 1727.14 403.31, 1736.62 401.81 C 1746.11 400.30, 1755.60 397.30, 1765.08 395.56 C 1774.57 393.83, 1784.05 390.79, 1793.54 391.37 C 1803.03 391.96, 1817.26 397.80, 1822.00 399.09 L 1822.00 490 L 86.00 490 Z" fill="url(#areaFill)"/>
  <path d="M 86.00 490.00 C 90.74 490.00, 104.97 490.00, 114.46 490.00 C 123.95 490.00, 133.43 490.00, 142.92 490.00 C 152.40 490.00, 161.89 490.00, 171.38 490.00 C 180.86 490.00, 190.35 490.00, 199.84 490.00 C 209.32 490.00, 218.81 490.00, 228.30 490.00 C 237.78 490.00, 247.27 490.00, 256.75 490.00 C 266.24 489.98, 275.73 489.92, 285.21 489.91 C 294.70 489.89, 304.19 489.91, 313.67 489.91 C 323.16 489.91, 332.64 489.94, 342.13 489.91 C 351.62 489.87, 361.10 489.72, 370.59 489.69 C 380.08 489.65, 389.56 489.70, 399.05 489.69 C 408.54 489.67, 418.02 489.62, 427.51 489.61 C 436.99 489.59, 446.48 490.00, 455.97 489.61 C 465.45 488.99, 474.94 486.51, 484.43 485.89 C 493.91 485.28, 503.40 485.91, 512.89 485.91 C 522.37 485.91, 531.86 485.90, 541.34 485.90 C 550.83 485.90, 560.32 490.00, 569.80 485.89 C 579.29 443.28, 588.78 274.96, 598.26 230.27 C 607.75 185.59, 617.23 219.88, 626.72 217.78 C 636.21 215.68, 645.69 218.05, 655.18 217.69 C 664.67 217.33, 674.15 216.22, 683.64 215.61 C 693.13 215.00, 702.61 214.42, 712.10 214.05 C 721.58 213.67, 731.07 213.51, 740.56 213.37 C 750.04 213.23, 759.53 213.54, 769.02 213.21 C 778.50 212.88, 787.99 211.70, 797.48 211.39 C 806.96 211.09, 816.45 211.39, 825.93 211.39 C 835.42 211.39, 844.91 211.45, 854.39 211.38 C 863.88 211.31, 873.37 211.03, 882.85 210.96 C 892.34 210.89, 901.83 210.96, 911.31 210.96 C 920.80 210.95, 930.28 210.95, 939.77 210.94 C 949.26 210.94, 958.74 210.92, 968.23 210.92 C 977.72 210.92, 987.20 211.38, 996.69 210.94 C 1006.17 210.50, 1015.66 208.73, 1025.15 208.29 C 1034.63 207.84, 1044.12 208.30, 1053.61 208.29 C 1063.09 208.27, 1072.58 208.21, 1082.07 208.20 C 1091.55 208.18, 1101.04 208.18, 1110.52 208.17 C 1120.01 208.17, 1129.50 208.16, 1138.98 208.16 C 1148.47 208.15, 1157.96 208.15, 1167.44 208.15 C 1176.93 208.14, 1186.42 208.13, 1195.90 208.12 C 1205.39 208.12, 1214.87 208.20, 1224.36 208.11 C 1233.85 208.01, 1243.33 207.65, 1252.82 207.56 C 1262.31 207.47, 1271.79 207.55, 1281.28 207.55 C 1290.77 207.55, 1300.25 207.54, 1309.74 207.54 C 1319.22 207.53, 1328.71 207.53, 1338.20 207.52 C 1347.68 207.52, 1357.17 207.51, 1366.66 207.50 C 1376.14 207.49, 1385.63 207.49, 1395.11 207.49 C 1404.60 207.49, 1414.09 207.49, 1423.57 207.49 C 1433.06 207.49, 1442.55 207.50, 1452.03 207.48 C 1461.52 207.46, 1471.01 207.41, 1480.49 207.39 C 1489.98 207.37, 1499.46 207.38, 1508.95 207.37 C 1518.44 207.37, 1527.92 207.71, 1537.41 207.35 C 1546.90 207.00, 1556.38 205.59, 1565.87 205.24 C 1575.36 204.89, 1584.84 211.15, 1594.33 205.24 C 1603.81 199.33, 1613.30 135.79, 1622.79 169.76 C 1632.27 203.74, 1641.76 369.82, 1651.25 409.09 C 1660.73 448.36, 1670.22 406.13, 1679.70 405.39 C 1689.19 404.64, 1698.68 405.21, 1708.16 404.61 C 1717.65 404.02, 1727.14 403.31, 1736.62 401.81 C 1746.11 400.30, 1755.60 397.30, 1765.08 395.56 C 1774.57 393.83, 1784.05 390.79, 1793.54 391.37 C 1803.03 391.96, 1817.26 397.80, 1822.00 399.09" fill="none" stroke="#4a90e2" stroke-width="2" stroke-opacity="0.7"/>

  <!-- Bars -->
  <rect x="476.7" y="312.5" width="15.400000000000002" height="88.1"
        fill="url(#gDelBar)" rx="2" opacity="0.78"/><rect x="476.7" y="400.6" width="15.400000000000002" height="89.4"
        fill="url(#gAddBar)" rx="2" opacity="0.82"/><rect x="590.6" y="392.5" width="15.400000000000002" height="2.7"
        fill="url(#gDelBar)" rx="2" opacity="0.78"/><rect x="590.6" y="395.2" width="15.400000000000002" height="94.8"
        fill="url(#gAddBar)" rx="2" opacity="0.82"/><rect x="619.0" y="476.3" width="15.400000000000002" height="4.6"
        fill="url(#gDelBar)" rx="2" opacity="0.78"/><rect x="619.0" y="480.9" width="15.400000000000002" height="9.1"
        fill="url(#gAddBar)" rx="2" opacity="0.82"/><rect x="675.9" y="487.5" width="15.400000000000002" height="0.9"
        fill="url(#gDelBar)" rx="2" opacity="0.78"/><rect x="675.9" y="488.4" width="15.400000000000002" height="1.6"
        fill="url(#gAddBar)" rx="2" opacity="0.82"/><rect x="704.4" y="487.5" width="15.400000000000002" height="1.0"
        fill="url(#gDelBar)" rx="2" opacity="0.78"/><rect x="704.4" y="488.5" width="15.400000000000002" height="1.5"
        fill="url(#gAddBar)" rx="2" opacity="0.82"/><rect x="761.3" y="487.6" width="15.400000000000002" height="1.2"
        fill="url(#gDelBar)" rx="2" opacity="0.78"/><rect x="761.3" y="488.8" width="15.400000000000002" height="1.2"
        fill="url(#gAddBar)" rx="2" opacity="0.82"/><rect x="789.8" y="486.1" width="15.400000000000002" height="1.6"
        fill="url(#gDelBar)" rx="2" opacity="0.78"/><rect x="789.8" y="487.7" width="15.400000000000002" height="2.3"
        fill="url(#gAddBar)" rx="2" opacity="0.82"/><rect x="1017.4" y="488.8" width="15.400000000000002" height="1.2"
        fill="url(#gAddBar)" rx="2" opacity="0.82"/><rect x="1245.1" y="488.7" width="15.400000000000002" height="0.5"
        fill="url(#gDelBar)" rx="2" opacity="0.78"/><rect x="1245.1" y="489.3" width="15.400000000000002" height="0.7"
        fill="url(#gAddBar)" rx="2" opacity="0.82"/><rect x="1558.2" y="479.7" width="15.400000000000002" height="4.8"
        fill="url(#gDelBar)" rx="2" opacity="0.78"/><rect x="1558.2" y="484.5" width="15.400000000000002" height="5.5"
        fill="url(#gAddBar)" rx="2" opacity="0.82"/><rect x="1615.1" y="472.3" width="15.400000000000002" height="2.5"
        fill="url(#gDelBar)" rx="2" opacity="0.78"/><rect x="1615.1" y="474.8" width="15.400000000000002" height="15.2"
        fill="url(#gAddBar)" rx="2" opacity="0.82"/><rect x="1643.5" y="401.3" width="15.400000000000002" height="87.4"
        fill="url(#gDelBar)" rx="2" opacity="0.78"/><rect x="1643.5" y="488.7" width="15.400000000000002" height="1.3"
        fill="url(#gAddBar)" rx="2" opacity="0.82"/><rect x="1672.0" y="479.5" width="15.400000000000002" height="4.6"
        fill="url(#gDelBar)" rx="2" opacity="0.78"/><rect x="1672.0" y="484.1" width="15.400000000000002" height="5.9"
        fill="url(#gAddBar)" rx="2" opacity="0.82"/><rect x="1700.5" y="488.0" width="15.400000000000002" height="0.9"
        fill="url(#gDelBar)" rx="2" opacity="0.78"/><rect x="1700.5" y="488.8" width="15.400000000000002" height="1.2"
        fill="url(#gAddBar)" rx="2" opacity="0.82"/><rect x="1728.9" y="483.7" width="15.400000000000002" height="2.6"
        fill="url(#gDelBar)" rx="2" opacity="0.78"/><rect x="1728.9" y="486.4" width="15.400000000000002" height="3.6"
        fill="url(#gAddBar)" rx="2" opacity="0.82"/><rect x="1757.4" y="484.0" width="15.400000000000002" height="1.9"
        fill="url(#gDelBar)" rx="2" opacity="0.78"/><rect x="1757.4" y="485.9" width="15.400000000000002" height="4.1"
        fill="url(#gAddBar)" rx="2" opacity="0.82"/><rect x="1785.8" y="476.7" width="15.400000000000002" height="5.9"
        fill="url(#gDelBar)" rx="2" opacity="0.78"/><rect x="1785.8" y="482.6" width="15.400000000000002" height="7.4"
        fill="url(#gAddBar)" rx="2" opacity="0.82"/><rect x="1814.3" y="485.1" width="15.400000000000002" height="3.8"
        fill="url(#gDelBar)" rx="2" opacity="0.78"/><rect x="1814.3" y="488.9" width="15.400000000000002" height="1.1"
        fill="url(#gAddBar)" rx="2" opacity="0.82"/>

  <!-- Commits line — glow + crisp -->
  <path d="M 86.00 485.50 C 90.74 486.25, 104.97 489.25, 114.46 490.00 C 123.95 490.00, 133.43 490.00, 142.92 490.00 C 152.40 490.00, 161.89 490.00, 171.38 490.00 C 180.86 490.00, 190.35 490.00, 199.84 490.00 C 209.32 490.00, 218.81 490.00, 228.30 490.00 C 237.78 490.00, 247.27 490.00, 256.75 490.00 C 266.24 482.50, 275.73 445.00, 285.21 445.00 C 294.70 445.00, 304.19 482.50, 313.67 490.00 C 323.16 490.00, 332.64 490.00, 342.13 490.00 C 351.62 470.50, 361.10 373.00, 370.59 373.00 C 380.08 373.00, 389.56 471.25, 399.05 490.00 C 408.54 490.00, 418.02 485.50, 427.51 485.50 C 436.99 485.50, 446.48 490.00, 455.97 490.00 C 465.45 466.75, 474.94 351.25, 484.43 346.00 C 493.91 340.75, 503.40 436.75, 512.89 458.50 C 522.37 480.25, 531.86 472.00, 541.34 476.50 C 550.83 481.00, 560.32 490.00, 569.80 485.50 C 579.29 438.25, 588.78 225.25, 598.26 193.00 C 607.75 160.75, 617.23 244.00, 626.72 292.00 C 636.21 340.00, 645.69 460.00, 655.18 481.00 C 664.67 490.00, 674.15 427.00, 683.64 418.00 C 693.13 409.00, 702.61 416.50, 712.10 427.00 C 721.58 437.50, 731.07 488.50, 740.56 481.00 C 750.04 473.50, 759.53 394.00, 769.02 382.00 C 778.50 370.00, 787.99 391.75, 797.48 409.00 C 806.96 426.25, 816.45 472.75, 825.93 485.50 C 835.42 490.00, 844.91 490.00, 854.39 485.50 C 863.88 479.50, 873.37 449.50, 882.85 449.50 C 892.34 449.50, 901.83 479.50, 911.31 485.50 C 920.80 490.00, 930.28 485.50, 939.77 485.50 C 949.26 485.50, 958.74 485.50, 968.23 485.50 C 977.72 485.50, 987.20 487.75, 996.69 485.50 C 1006.17 483.25, 1015.66 472.00, 1025.15 472.00 C 1034.63 472.00, 1044.12 483.25, 1053.61 485.50 C 1063.09 487.75, 1072.58 485.50, 1082.07 485.50 C 1091.55 485.50, 1101.04 485.50, 1110.52 485.50 C 1120.01 485.50, 1129.50 485.50, 1138.98 485.50 C 1148.47 485.50, 1157.96 485.50, 1167.44 485.50 C 1176.93 485.50, 1186.42 485.50, 1195.90 485.50 C 1205.39 485.50, 1214.87 487.00, 1224.36 485.50 C 1233.85 484.00, 1243.33 476.50, 1252.82 476.50 C 1262.31 476.50, 1271.79 484.00, 1281.28 485.50 C 1290.77 487.00, 1300.25 485.50, 1309.74 485.50 C 1319.22 485.50, 1328.71 485.50, 1338.20 485.50 C 1347.68 485.50, 1357.17 485.50, 1366.66 485.50 C 1376.14 485.50, 1385.63 485.50, 1395.11 485.50 C 1404.60 485.50, 1414.09 485.50, 1423.57 485.50 C 1433.06 485.50, 1442.55 485.50, 1452.03 485.50 C 1461.52 485.50, 1471.01 485.50, 1480.49 485.50 C 1489.98 485.50, 1499.46 485.50, 1508.95 485.50 C 1518.44 485.50, 1527.92 489.25, 1537.41 485.50 C 1546.90 481.75, 1556.38 463.00, 1565.87 463.00 C 1575.36 463.00, 1584.84 490.00, 1594.33 485.50 C 1603.81 460.75, 1613.30 321.25, 1622.79 314.50 C 1632.27 307.75, 1641.76 443.50, 1651.25 445.00 C 1660.73 446.50, 1670.22 322.75, 1679.70 323.50 C 1689.19 324.25, 1698.68 431.50, 1708.16 449.50 C 1717.65 467.50, 1727.14 431.50, 1736.62 431.50 C 1746.11 431.50, 1755.60 484.75, 1765.08 449.50 C 1774.57 414.25, 1784.05 229.00, 1793.54 220.00 C 1803.03 211.00, 1817.26 366.25, 1822.00 395.50" fill="none" stroke="#ff8c42" stroke-width="9" stroke-opacity="0.06" filter="url(#glowLine)"/>
  <path d="M 86.00 485.50 C 90.74 486.25, 104.97 489.25, 114.46 490.00 C 123.95 490.00, 133.43 490.00, 142.92 490.00 C 152.40 490.00, 161.89 490.00, 171.38 490.00 C 180.86 490.00, 190.35 490.00, 199.84 490.00 C 209.32 490.00, 218.81 490.00, 228.30 490.00 C 237.78 490.00, 247.27 490.00, 256.75 490.00 C 266.24 482.50, 275.73 445.00, 285.21 445.00 C 294.70 445.00, 304.19 482.50, 313.67 490.00 C 323.16 490.00, 332.64 490.00, 342.13 490.00 C 351.62 470.50, 361.10 373.00, 370.59 373.00 C 380.08 373.00, 389.56 471.25, 399.05 490.00 C 408.54 490.00, 418.02 485.50, 427.51 485.50 C 436.99 485.50, 446.48 490.00, 455.97 490.00 C 465.45 466.75, 474.94 351.25, 484.43 346.00 C 493.91 340.75, 503.40 436.75, 512.89 458.50 C 522.37 480.25, 531.86 472.00, 541.34 476.50 C 550.83 481.00, 560.32 490.00, 569.80 485.50 C 579.29 438.25, 588.78 225.25, 598.26 193.00 C 607.75 160.75, 617.23 244.00, 626.72 292.00 C 636.21 340.00, 645.69 460.00, 655.18 481.00 C 664.67 490.00, 674.15 427.00, 683.64 418.00 C 693.13 409.00, 702.61 416.50, 712.10 427.00 C 721.58 437.50, 731.07 488.50, 740.56 481.00 C 750.04 473.50, 759.53 394.00, 769.02 382.00 C 778.50 370.00, 787.99 391.75, 797.48 409.00 C 806.96 426.25, 816.45 472.75, 825.93 485.50 C 835.42 490.00, 844.91 490.00, 854.39 485.50 C 863.88 479.50, 873.37 449.50, 882.85 449.50 C 892.34 449.50, 901.83 479.50, 911.31 485.50 C 920.80 490.00, 930.28 485.50, 939.77 485.50 C 949.26 485.50, 958.74 485.50, 968.23 485.50 C 977.72 485.50, 987.20 487.75, 996.69 485.50 C 1006.17 483.25, 1015.66 472.00, 1025.15 472.00 C 1034.63 472.00, 1044.12 483.25, 1053.61 485.50 C 1063.09 487.75, 1072.58 485.50, 1082.07 485.50 C 1091.55 485.50, 1101.04 485.50, 1110.52 485.50 C 1120.01 485.50, 1129.50 485.50, 1138.98 485.50 C 1148.47 485.50, 1157.96 485.50, 1167.44 485.50 C 1176.93 485.50, 1186.42 485.50, 1195.90 485.50 C 1205.39 485.50, 1214.87 487.00, 1224.36 485.50 C 1233.85 484.00, 1243.33 476.50, 1252.82 476.50 C 1262.31 476.50, 1271.79 484.00, 1281.28 485.50 C 1290.77 487.00, 1300.25 485.50, 1309.74 485.50 C 1319.22 485.50, 1328.71 485.50, 1338.20 485.50 C 1347.68 485.50, 1357.17 485.50, 1366.66 485.50 C 1376.14 485.50, 1385.63 485.50, 1395.11 485.50 C 1404.60 485.50, 1414.09 485.50, 1423.57 485.50 C 1433.06 485.50, 1442.55 485.50, 1452.03 485.50 C 1461.52 485.50, 1471.01 485.50, 1480.49 485.50 C 1489.98 485.50, 1499.46 485.50, 1508.95 485.50 C 1518.44 485.50, 1527.92 489.25, 1537.41 485.50 C 1546.90 481.75, 1556.38 463.00, 1565.87 463.00 C 1575.36 463.00, 1584.84 490.00, 1594.33 485.50 C 1603.81 460.75, 1613.30 321.25, 1622.79 314.50 C 1632.27 307.75, 1641.76 443.50, 1651.25 445.00 C 1660.73 446.50, 1670.22 322.75, 1679.70 323.50 C 1689.19 324.25, 1698.68 431.50, 1708.16 449.50 C 1717.65 467.50, 1727.14 431.50, 1736.62 431.50 C 1746.11 431.50, 1755.60 484.75, 1765.08 449.50 C 1774.57 414.25, 1784.05 229.00, 1793.54 220.00 C 1803.03 211.00, 1817.26 366.25, 1822.00 395.50" fill="none" stroke="url(#gCommits)" stroke-width="2.8" stroke-linecap="round"/>

  <!-- Changes/commit line -->
  <path d="M 86.00 489.95 C 90.74 489.96, 104.97 489.99, 114.46 490.00 C 123.95 490.00, 133.43 490.00, 142.92 490.00 C 152.40 490.00, 161.89 490.00, 171.38 490.00 C 180.86 490.00, 190.35 490.00, 199.84 490.00 C 209.32 490.00, 218.81 490.00, 228.30 490.00 C 237.78 490.00, 247.27 490.00, 256.75 490.00 C 266.24 489.97, 275.73 489.82, 285.21 489.82 C 294.70 489.82, 304.19 489.97, 313.67 490.00 C 323.16 490.00, 332.64 490.00, 342.13 490.00 C 351.62 489.98, 361.10 489.87, 370.59 489.87 C 380.08 489.87, 389.56 490.00, 399.05 490.00 C 408.54 489.86, 418.02 489.01, 427.51 489.01 C 436.99 489.01, 446.48 490.00, 455.97 490.00 C 465.45 458.07, 474.94 297.56, 484.43 297.44 C 493.91 297.33, 503.40 457.62, 512.89 489.32 C 522.37 490.00, 531.86 487.94, 541.34 487.66 C 550.83 487.38, 560.32 490.00, 569.80 487.66 C 579.29 479.50, 588.78 440.12, 598.26 438.70 C 607.75 437.28, 617.23 472.11, 626.72 479.15 C 636.21 486.20, 645.69 480.05, 655.18 480.95 C 664.67 481.86, 674.15 484.08, 683.64 484.56 C 693.13 485.03, 702.61 483.86, 712.10 483.79 C 721.58 483.72, 731.07 483.70, 740.56 484.15 C 750.04 484.60, 759.53 486.76, 769.02 486.49 C 778.50 486.22, 787.99 482.59, 797.48 482.53 C 806.96 482.47, 816.45 486.48, 825.93 486.13 C 835.42 485.78, 844.91 480.26, 854.39 480.46 C 863.88 480.65, 873.37 486.26, 882.85 487.30 C 892.34 488.34, 901.83 487.88, 911.31 486.67 C 920.80 485.46, 930.28 481.23, 939.77 480.01 C 949.26 478.79, 958.74 479.49, 968.23 479.38 C 977.72 479.27, 987.20 479.64, 996.69 479.38 C 1006.17 479.12, 1015.66 476.63, 1025.15 477.81 C 1034.63 478.98, 1044.12 487.00, 1053.61 486.40 C 1063.09 485.80, 1072.58 475.51, 1082.07 474.20 C 1091.55 472.90, 1101.04 477.86, 1110.52 478.57 C 1120.01 479.28, 1129.50 478.50, 1138.98 478.48 C 1148.47 478.47, 1157.96 478.53, 1167.44 478.48 C 1176.93 478.44, 1186.42 478.31, 1195.90 478.21 C 1205.39 478.10, 1214.87 478.32, 1224.36 477.85 C 1233.85 477.38, 1243.33 473.94, 1252.82 475.38 C 1262.31 476.81, 1271.79 486.17, 1281.28 486.49 C 1290.77 486.81, 1300.25 478.88, 1309.74 477.31 C 1319.22 475.74, 1328.71 477.16, 1338.20 477.04 C 1347.68 476.92, 1357.17 476.71, 1366.66 476.59 C 1376.14 476.47, 1385.63 476.35, 1395.11 476.32 C 1404.60 476.29, 1414.09 476.46, 1423.57 476.41 C 1433.06 476.37, 1442.55 477.12, 1452.03 476.05 C 1461.52 474.98, 1471.01 469.96, 1480.49 469.98 C 1489.98 469.99, 1499.46 477.21, 1508.95 476.14 C 1518.44 475.07, 1527.92 471.21, 1537.41 463.54 C 1546.90 455.88, 1556.38 426.34, 1565.87 430.15 C 1575.36 433.96, 1584.84 479.05, 1594.33 486.40 C 1603.81 490.00, 1613.30 490.00, 1622.79 474.25 C 1632.27 423.52, 1641.76 181.04, 1651.25 182.02 C 1660.73 183.00, 1670.22 430.11, 1679.70 480.14 C 1689.19 490.00, 1698.68 483.37, 1708.16 482.21 C 1717.65 481.06, 1727.14 475.81, 1736.62 473.21 C 1746.11 470.62, 1755.60 465.14, 1765.08 466.64 C 1774.57 468.15, 1784.05 479.72, 1793.54 482.26 C 1803.03 484.80, 1817.26 481.96, 1822.00 481.90" fill="none" stroke="#00d4f5" stroke-width="9" stroke-opacity="0.06" filter="url(#glowLine)"/>
  <path d="M 86.00 489.95 C 90.74 489.96, 104.97 489.99, 114.46 490.00 C 123.95 490.00, 133.43 490.00, 142.92 490.00 C 152.40 490.00, 161.89 490.00, 171.38 490.00 C 180.86 490.00, 190.35 490.00, 199.84 490.00 C 209.32 490.00, 218.81 490.00, 228.30 490.00 C 237.78 490.00, 247.27 490.00, 256.75 490.00 C 266.24 489.97, 275.73 489.82, 285.21 489.82 C 294.70 489.82, 304.19 489.97, 313.67 490.00 C 323.16 490.00, 332.64 490.00, 342.13 490.00 C 351.62 489.98, 361.10 489.87, 370.59 489.87 C 380.08 489.87, 389.56 490.00, 399.05 490.00 C 408.54 489.86, 418.02 489.01, 427.51 489.01 C 436.99 489.01, 446.48 490.00, 455.97 490.00 C 465.45 458.07, 474.94 297.56, 484.43 297.44 C 493.91 297.33, 503.40 457.62, 512.89 489.32 C 522.37 490.00, 531.86 487.94, 541.34 487.66 C 550.83 487.38, 560.32 490.00, 569.80 487.66 C 579.29 479.50, 588.78 440.12, 598.26 438.70 C 607.75 437.28, 617.23 472.11, 626.72 479.15 C 636.21 486.20, 645.69 480.05, 655.18 480.95 C 664.67 481.86, 674.15 484.08, 683.64 484.56 C 693.13 485.03, 702.61 483.86, 712.10 483.79 C 721.58 483.72, 731.07 483.70, 740.56 484.15 C 750.04 484.60, 759.53 486.76, 769.02 486.49 C 778.50 486.22, 787.99 482.59, 797.48 482.53 C 806.96 482.47, 816.45 486.48, 825.93 486.13 C 835.42 485.78, 844.91 480.26, 854.39 480.46 C 863.88 480.65, 873.37 486.26, 882.85 487.30 C 892.34 488.34, 901.83 487.88, 911.31 486.67 C 920.80 485.46, 930.28 481.23, 939.77 480.01 C 949.26 478.79, 958.74 479.49, 968.23 479.38 C 977.72 479.27, 987.20 479.64, 996.69 479.38 C 1006.17 479.12, 1015.66 476.63, 1025.15 477.81 C 1034.63 478.98, 1044.12 487.00, 1053.61 486.40 C 1063.09 485.80, 1072.58 475.51, 1082.07 474.20 C 1091.55 472.90, 1101.04 477.86, 1110.52 478.57 C 1120.01 479.28, 1129.50 478.50, 1138.98 478.48 C 1148.47 478.47, 1157.96 478.53, 1167.44 478.48 C 1176.93 478.44, 1186.42 478.31, 1195.90 478.21 C 1205.39 478.10, 1214.87 478.32, 1224.36 477.85 C 1233.85 477.38, 1243.33 473.94, 1252.82 475.38 C 1262.31 476.81, 1271.79 486.17, 1281.28 486.49 C 1290.77 486.81, 1300.25 478.88, 1309.74 477.31 C 1319.22 475.74, 1328.71 477.16, 1338.20 477.04 C 1347.68 476.92, 1357.17 476.71, 1366.66 476.59 C 1376.14 476.47, 1385.63 476.35, 1395.11 476.32 C 1404.60 476.29, 1414.09 476.46, 1423.57 476.41 C 1433.06 476.37, 1442.55 477.12, 1452.03 476.05 C 1461.52 474.98, 1471.01 469.96, 1480.49 469.98 C 1489.98 469.99, 1499.46 477.21, 1508.95 476.14 C 1518.44 475.07, 1527.92 471.21, 1537.41 463.54 C 1546.90 455.88, 1556.38 426.34, 1565.87 430.15 C 1575.36 433.96, 1584.84 479.05, 1594.33 486.40 C 1603.81 490.00, 1613.30 490.00, 1622.79 474.25 C 1632.27 423.52, 1641.76 181.04, 1651.25 182.02 C 1660.73 183.00, 1670.22 430.11, 1679.70 480.14 C 1689.19 490.00, 1698.68 483.37, 1708.16 482.21 C 1717.65 481.06, 1727.14 475.81, 1736.62 473.21 C 1746.11 470.62, 1755.60 465.14, 1765.08 466.64 C 1774.57 468.15, 1784.05 479.72, 1793.54 482.26 C 1803.03 484.80, 1817.26 481.96, 1822.00 481.90" fill="none" stroke="url(#gChanges)" stroke-width="2.5" stroke-linecap="round"/>

  <!-- Moving averages -->
  <path d="M 86.00 488.88 C 90.74 488.91, 104.97 489.04, 114.46 489.10 C 123.95 489.16, 133.43 489.21, 142.92 489.25 C 152.40 489.29, 161.89 490.00, 171.38 489.36 C 180.86 488.41, 190.35 484.54, 199.84 483.57 C 209.32 482.61, 218.81 483.57, 228.30 483.57 C 237.78 483.57, 247.27 486.36, 256.75 483.57 C 266.24 480.79, 275.73 469.64, 285.21 466.86 C 294.70 464.07, 304.19 466.96, 313.67 466.86 C 323.16 466.75, 332.64 466.32, 342.13 466.21 C 351.62 466.11, 361.10 468.57, 370.59 466.21 C 380.08 463.86, 389.56 455.18, 399.05 452.07 C 408.54 448.96, 418.02 448.64, 427.51 447.57 C 436.99 446.50, 446.48 443.29, 455.97 445.64 C 465.45 448.00, 474.94 466.11, 484.43 461.71 C 493.91 457.32, 503.40 430.96, 512.89 419.29 C 522.37 407.61, 531.86 396.46, 541.34 391.64 C 550.83 386.82, 560.32 388.86, 569.80 390.36 C 579.29 391.86, 588.78 399.68, 598.26 400.64 C 607.75 401.61, 617.23 396.79, 626.72 396.14 C 636.21 395.50, 645.69 399.14, 655.18 396.79 C 664.67 394.43, 674.15 379.32, 683.64 382.00 C 693.13 384.68, 702.61 403.11, 712.10 412.86 C 721.58 422.61, 731.07 435.79, 740.56 440.50 C 750.04 445.21, 759.53 440.29, 769.02 441.14 C 778.50 442.00, 787.99 443.50, 797.48 445.64 C 806.96 447.79, 816.45 452.50, 825.93 454.00 C 835.42 455.50, 844.91 452.07, 854.39 454.64 C 863.88 457.21, 873.37 465.14, 882.85 469.43 C 892.34 473.71, 901.83 478.86, 911.31 480.36 C 920.80 481.86, 930.28 478.75, 939.77 478.43 C 949.26 478.11, 958.74 477.57, 968.23 478.43 C 977.72 479.29, 987.20 482.71, 996.69 483.57 C 1006.17 484.43, 1015.66 483.57, 1025.15 483.57 C 1034.63 483.57, 1044.12 483.57, 1053.61 483.57 C 1063.09 483.57, 1072.58 483.57, 1082.07 483.57 C 1091.55 483.57, 1101.04 483.25, 1110.52 483.57 C 1120.01 483.89, 1129.50 485.39, 1138.98 485.50 C 1148.47 485.61, 1157.96 484.43, 1167.44 484.21 C 1176.93 484.00, 1186.42 484.21, 1195.90 484.21 C 1205.39 484.21, 1214.87 484.21, 1224.36 484.21 C 1233.85 484.21, 1243.33 484.21, 1252.82 484.21 C 1262.31 484.21, 1271.79 484.21, 1281.28 484.21 C 1290.77 484.21, 1300.25 484.21, 1309.74 484.21 C 1319.22 484.21, 1328.71 484.00, 1338.20 484.21 C 1347.68 484.43, 1357.17 485.29, 1366.66 485.50 C 1376.14 485.71, 1385.63 485.50, 1395.11 485.50 C 1404.60 485.50, 1414.09 485.50, 1423.57 485.50 C 1433.06 485.50, 1442.55 486.04, 1452.03 485.50 C 1461.52 484.96, 1471.01 482.82, 1480.49 482.29 C 1489.98 481.75, 1499.46 486.36, 1508.95 482.29 C 1518.44 478.21, 1527.92 462.89, 1537.41 457.86 C 1546.90 452.82, 1556.38 456.89, 1565.87 452.07 C 1575.36 447.25, 1584.84 433.64, 1594.33 428.93 C 1603.81 424.21, 1613.30 425.93, 1622.79 423.79 C 1632.27 421.64, 1641.76 417.68, 1651.25 416.07 C 1660.73 414.46, 1670.22 420.79, 1679.70 414.14 C 1689.19 407.50, 1698.68 380.61, 1708.16 376.21 C 1717.65 371.82, 1727.14 387.45, 1736.62 387.79 C 1746.11 388.13, 1755.60 378.01, 1765.08 378.25 C 1774.57 378.49, 1784.05 389.89, 1793.54 389.20 C 1803.03 388.51, 1817.26 376.64, 1822.00 374.13" fill="none" stroke="#a78bfa" stroke-width="2" stroke-dasharray="6,4" stroke-opacity="0.55" filter="url(#glowMA)"/>
  <path d="M 86.00 489.99 C 90.74 489.99, 104.97 489.99, 114.46 489.99 C 123.95 489.99, 133.43 489.99, 142.92 489.99 C 152.40 489.99, 161.89 490.00, 171.38 489.99 C 180.86 489.99, 190.35 489.98, 199.84 489.97 C 209.32 489.97, 218.81 489.97, 228.30 489.97 C 237.78 489.97, 247.27 489.98, 256.75 489.97 C 266.24 489.97, 275.73 489.96, 285.21 489.95 C 294.70 489.95, 304.19 489.98, 313.67 489.95 C 323.16 489.93, 332.64 489.84, 342.13 489.81 C 351.62 489.79, 361.10 490.00, 370.59 489.81 C 380.08 485.23, 389.56 466.93, 399.05 462.33 C 408.54 457.73, 418.02 462.31, 427.51 462.24 C 436.99 462.16, 446.48 462.01, 455.97 461.90 C 465.45 461.79, 474.94 462.86, 484.43 461.59 C 493.91 460.31, 503.40 455.71, 512.89 454.26 C 522.37 452.80, 531.86 453.30, 541.34 452.85 C 550.83 452.40, 560.32 447.32, 569.80 451.56 C 579.29 455.80, 588.78 473.96, 598.26 478.29 C 607.75 482.61, 617.23 477.71, 626.72 477.50 C 636.21 477.28, 645.69 477.11, 655.18 477.00 C 664.67 476.88, 674.15 475.81, 683.64 476.83 C 693.13 477.84, 702.61 481.88, 712.10 483.09 C 721.58 484.30, 731.07 483.93, 740.56 484.09 C 750.04 484.24, 759.53 483.96, 769.02 484.01 C 778.50 484.07, 787.99 484.27, 797.48 484.41 C 806.96 484.54, 816.45 484.85, 825.93 484.82 C 835.42 484.79, 844.91 484.50, 854.39 484.23 C 863.88 483.96, 873.37 483.46, 882.85 483.21 C 892.34 482.97, 901.83 483.03, 911.31 482.76 C 920.80 482.49, 930.28 481.63, 939.77 481.57 C 949.26 481.52, 958.74 482.59, 968.23 482.42 C 977.72 482.25, 987.20 481.05, 996.69 480.55 C 1006.17 480.05, 1015.66 479.62, 1025.15 479.39 C 1034.63 479.16, 1044.12 479.23, 1053.61 479.17 C 1063.09 479.12, 1072.58 479.09, 1082.07 479.05 C 1091.55 479.00, 1101.04 478.91, 1110.52 478.88 C 1120.01 478.85, 1129.50 479.15, 1138.98 478.88 C 1148.47 478.62, 1157.96 477.28, 1167.44 477.31 C 1176.93 477.34, 1186.42 478.80, 1195.90 479.06 C 1205.39 479.33, 1214.87 478.95, 1224.36 478.88 C 1233.85 478.82, 1243.33 478.76, 1252.82 478.68 C 1262.31 478.60, 1271.79 478.50, 1281.28 478.41 C 1290.77 478.32, 1300.25 478.22, 1309.74 478.14 C 1319.22 478.06, 1328.71 477.95, 1338.20 477.93 C 1347.68 477.92, 1357.17 478.41, 1366.66 478.03 C 1376.14 477.65, 1385.63 476.09, 1395.11 475.67 C 1404.60 475.25, 1414.09 475.85, 1423.57 475.50 C 1433.06 475.15, 1442.55 475.00, 1452.03 473.57 C 1461.52 472.15, 1471.01 467.81, 1480.49 466.94 C 1489.98 466.08, 1499.46 468.19, 1508.95 468.38 C 1518.44 468.57, 1527.92 475.12, 1537.41 468.07 C 1546.90 461.02, 1556.38 432.83, 1565.87 426.07 C 1575.36 419.31, 1584.84 427.13, 1594.33 427.52 C 1603.81 427.91, 1613.30 428.01, 1622.79 428.39 C 1632.27 428.76, 1641.76 428.67, 1651.25 429.77 C 1660.73 430.87, 1670.22 434.21, 1679.70 434.98 C 1689.19 435.75, 1698.68 434.31, 1708.16 434.39 C 1717.65 434.48, 1727.14 428.26, 1736.62 435.49 C 1746.11 442.71, 1755.60 470.77, 1765.08 477.73 C 1774.57 484.69, 1784.05 477.53, 1793.54 477.25 C 1803.03 476.96, 1817.26 476.21, 1822.00 476.00" fill="none" stroke="#c4b5fd" stroke-width="1.5" stroke-dasharray="5,4" stroke-opacity="0.4"/>

  <!-- Statistical overlay -->
  <line x1="86" y1="445.8" x2="1822" y2="445.8"
      stroke="#ff8c42" stroke-width="1" stroke-dasharray="8,4" opacity="0.3"/>
    <text x="1834" y="439.8" font-size="8" fill="#ff8c42"
      text-anchor="start" font-family="'Lexend','Segoe UI',sans-serif" font-weight="300" opacity="0.6">μ=9.8</text>

  <!-- Data point circles (inside clip for safety) -->
  <circle cx="86.0" cy="485.5" r="3.0"
        fill="#ff8c42" stroke="#ffd0a0" stroke-width="1" filter="url(#glowOrange)" opacity="0.9">
        <title>2026-03-10: 1 commits</title></circle><circle cx="285.2" cy="445.0" r="3.3"
        fill="#ff8c42" stroke="#ffd0a0" stroke-width="1" filter="url(#glowOrange)" opacity="0.9">
        <title>2026-03-17: 10 commits</title></circle><circle cx="370.6" cy="373.0" r="3.8"
        fill="#ff8c42" stroke="#ffd0a0" stroke-width="1" filter="url(#glowOrange)" opacity="0.9">
        <title>2026-03-20: 26 commits</title></circle><circle cx="427.5" cy="485.5" r="3.0"
        fill="#ff8c42" stroke="#ffd0a0" stroke-width="1" filter="url(#glowOrange)" opacity="0.9">
        <title>2026-03-22: 1 commits</title></circle><circle cx="484.4" cy="346.0" r="4.0"
        fill="#ff8c42" stroke="#ffd0a0" stroke-width="1" filter="url(#glowOrange)" opacity="0.9">
        <title>2026-03-24: 32 commits</title></circle><circle cx="512.9" cy="458.5" r="3.2"
        fill="#ff8c42" stroke="#ffd0a0" stroke-width="1" filter="url(#glowOrange)" opacity="0.9">
        <title>2026-03-25: 7 commits</title></circle><circle cx="541.3" cy="476.5" r="3.1"
        fill="#ff8c42" stroke="#ffd0a0" stroke-width="1" filter="url(#glowOrange)" opacity="0.9">
        <title>2026-03-26: 3 commits</title></circle><circle cx="569.8" cy="485.5" r="3.0"
        fill="#ff8c42" stroke="#ffd0a0" stroke-width="1" filter="url(#glowOrange)" opacity="0.9">
        <title>2026-03-27: 1 commits</title></circle><circle cx="598.3" cy="193.0" r="5.1"
        fill="#ff8c42" stroke="#ffd0a0" stroke-width="1" filter="url(#glowOrange)" opacity="0.9">
        <title>2026-03-28: 66 commits</title></circle><circle cx="626.7" cy="292.0" r="4.4"
        fill="#ff8c42" stroke="#ffd0a0" stroke-width="1" filter="url(#glowOrange)" opacity="0.9">
        <title>2026-03-29: 44 commits</title></circle><circle cx="655.2" cy="481.0" r="3.1"
        fill="#ff8c42" stroke="#ffd0a0" stroke-width="1" filter="url(#glowOrange)" opacity="0.9">
        <title>2026-03-30: 2 commits</title></circle><circle cx="683.6" cy="418.0" r="3.5"
        fill="#ff8c42" stroke="#ffd0a0" stroke-width="1" filter="url(#glowOrange)" opacity="0.9">
        <title>2026-03-31: 16 commits</title></circle><circle cx="712.1" cy="427.0" r="3.4"
        fill="#ff8c42" stroke="#ffd0a0" stroke-width="1" filter="url(#glowOrange)" opacity="0.9">
        <title>2026-04-01: 14 commits</title></circle><circle cx="740.6" cy="481.0" r="3.1"
        fill="#ff8c42" stroke="#ffd0a0" stroke-width="1" filter="url(#glowOrange)" opacity="0.9">
        <title>2026-04-02: 2 commits</title></circle><circle cx="769.0" cy="382.0" r="3.8"
        fill="#ff8c42" stroke="#ffd0a0" stroke-width="1" filter="url(#glowOrange)" opacity="0.9">
        <title>2026-04-03: 24 commits</title></circle><circle cx="797.5" cy="409.0" r="3.6"
        fill="#ff8c42" stroke="#ffd0a0" stroke-width="1" filter="url(#glowOrange)" opacity="0.9">
        <title>2026-04-04: 18 commits</title></circle><circle cx="825.9" cy="485.5" r="3.0"
        fill="#ff8c42" stroke="#ffd0a0" stroke-width="1" filter="url(#glowOrange)" opacity="0.9">
        <title>2026-04-05: 1 commits</title></circle><circle cx="854.4" cy="485.5" r="3.0"
        fill="#ff8c42" stroke="#ffd0a0" stroke-width="1" filter="url(#glowOrange)" opacity="0.9">
        <title>2026-04-06: 1 commits</title></circle><circle cx="882.9" cy="449.5" r="3.3"
        fill="#ff8c42" stroke="#ffd0a0" stroke-width="1" filter="url(#glowOrange)" opacity="0.9">
        <title>2026-04-07: 9 commits</title></circle><circle cx="911.3" cy="485.5" r="3.0"
        fill="#ff8c42" stroke="#ffd0a0" stroke-width="1" filter="url(#glowOrange)" opacity="0.9">
        <title>2026-04-08: 1 commits</title></circle><circle cx="939.8" cy="485.5" r="3.0"
        fill="#ff8c42" stroke="#ffd0a0" stroke-width="1" filter="url(#glowOrange)" opacity="0.9">
        <title>2026-04-09: 1 commits</title></circle><circle cx="968.2" cy="485.5" r="3.0"
        fill="#ff8c42" stroke="#ffd0a0" stroke-width="1" filter="url(#glowOrange)" opacity="0.9">
        <title>2026-04-10: 1 commits</title></circle><circle cx="996.7" cy="485.5" r="3.0"
        fill="#ff8c42" stroke="#ffd0a0" stroke-width="1" filter="url(#glowOrange)" opacity="0.9">
        <title>2026-04-11: 1 commits</title></circle><circle cx="1025.1" cy="472.0" r="3.1"
        fill="#ff8c42" stroke="#ffd0a0" stroke-width="1" filter="url(#glowOrange)" opacity="0.9">
        <title>2026-04-12: 4 commits</title></circle><circle cx="1053.6" cy="485.5" r="3.0"
        fill="#ff8c42" stroke="#ffd0a0" stroke-width="1" filter="url(#glowOrange)" opacity="0.9">
        <title>2026-04-13: 1 commits</title></circle><circle cx="1082.1" cy="485.5" r="3.0"
        fill="#ff8c42" stroke="#ffd0a0" stroke-width="1" filter="url(#glowOrange)" opacity="0.9">
        <title>2026-04-14: 1 commits</title></circle><circle cx="1110.5" cy="485.5" r="3.0"
        fill="#ff8c42" stroke="#ffd0a0" stroke-width="1" filter="url(#glowOrange)" opacity="0.9">
        <title>2026-04-15: 1 commits</title></circle><circle cx="1139.0" cy="485.5" r="3.0"
        fill="#ff8c42" stroke="#ffd0a0" stroke-width="1" filter="url(#glowOrange)" opacity="0.9">
        <title>2026-04-16: 1 commits</title></circle><circle cx="1167.4" cy="485.5" r="3.0"
        fill="#ff8c42" stroke="#ffd0a0" stroke-width="1" filter="url(#glowOrange)" opacity="0.9">
        <title>2026-04-17: 1 commits</title></circle><circle cx="1195.9" cy="485.5" r="3.0"
        fill="#ff8c42" stroke="#ffd0a0" stroke-width="1" filter="url(#glowOrange)" opacity="0.9">
        <title>2026-04-18: 1 commits</title></circle><circle cx="1224.4" cy="485.5" r="3.0"
        fill="#ff8c42" stroke="#ffd0a0" stroke-width="1" filter="url(#glowOrange)" opacity="0.9">
        <title>2026-04-19: 1 commits</title></circle><circle cx="1252.8" cy="476.5" r="3.1"
        fill="#ff8c42" stroke="#ffd0a0" stroke-width="1" filter="url(#glowOrange)" opacity="0.9">
        <title>2026-04-20: 3 commits</title></circle><circle cx="1281.3" cy="485.5" r="3.0"
        fill="#ff8c42" stroke="#ffd0a0" stroke-width="1" filter="url(#glowOrange)" opacity="0.9">
        <title>2026-04-21: 1 commits</title></circle><circle cx="1309.7" cy="485.5" r="3.0"
        fill="#ff8c42" stroke="#ffd0a0" stroke-width="1" filter="url(#glowOrange)" opacity="0.9">
        <title>2026-04-22: 1 commits</title></circle><circle cx="1338.2" cy="485.5" r="3.0"
        fill="#ff8c42" stroke="#ffd0a0" stroke-width="1" filter="url(#glowOrange)" opacity="0.9">
        <title>2026-04-23: 1 commits</title></circle><circle cx="1366.7" cy="485.5" r="3.0"
        fill="#ff8c42" stroke="#ffd0a0" stroke-width="1" filter="url(#glowOrange)" opacity="0.9">
        <title>2026-04-24: 1 commits</title></circle><circle cx="1395.1" cy="485.5" r="3.0"
        fill="#ff8c42" stroke="#ffd0a0" stroke-width="1" filter="url(#glowOrange)" opacity="0.9">
        <title>2026-04-25: 1 commits</title></circle><circle cx="1423.6" cy="485.5" r="3.0"
        fill="#ff8c42" stroke="#ffd0a0" stroke-width="1" filter="url(#glowOrange)" opacity="0.9">
        <title>2026-04-26: 1 commits</title></circle><circle cx="1452.0" cy="485.5" r="3.0"
        fill="#ff8c42" stroke="#ffd0a0" stroke-width="1" filter="url(#glowOrange)" opacity="0.9">
        <title>2026-04-27: 1 commits</title></circle><circle cx="1480.5" cy="485.5" r="3.0"
        fill="#ff8c42" stroke="#ffd0a0" stroke-width="1" filter="url(#glowOrange)" opacity="0.9">
        <title>2026-04-28: 1 commits</title></circle><circle cx="1509.0" cy="485.5" r="3.0"
        fill="#ff8c42" stroke="#ffd0a0" stroke-width="1" filter="url(#glowOrange)" opacity="0.9">
        <title>2026-04-29: 1 commits</title></circle><circle cx="1537.4" cy="485.5" r="3.0"
        fill="#ff8c42" stroke="#ffd0a0" stroke-width="1" filter="url(#glowOrange)" opacity="0.9">
        <title>2026-04-30: 1 commits</title></circle><circle cx="1565.9" cy="463.0" r="3.2"
        fill="#ff8c42" stroke="#ffd0a0" stroke-width="1" filter="url(#glowOrange)" opacity="0.9">
        <title>2026-05-01: 6 commits</title></circle><circle cx="1594.3" cy="485.5" r="3.0"
        fill="#ff8c42" stroke="#ffd0a0" stroke-width="1" filter="url(#glowOrange)" opacity="0.9">
        <title>2026-05-02: 1 commits</title></circle><circle cx="1622.8" cy="314.5" r="4.2"
        fill="#ff8c42" stroke="#ffd0a0" stroke-width="1" filter="url(#glowOrange)" opacity="0.9">
        <title>2026-05-03: 39 commits</title></circle><circle cx="1651.2" cy="445.0" r="3.3"
        fill="#ff8c42" stroke="#ffd0a0" stroke-width="1" filter="url(#glowOrange)" opacity="0.9">
        <title>2026-05-04: 10 commits</title></circle><circle cx="1679.7" cy="323.5" r="4.2"
        fill="#ff8c42" stroke="#ffd0a0" stroke-width="1" filter="url(#glowOrange)" opacity="0.9">
        <title>2026-05-05: 37 commits</title></circle><circle cx="1708.2" cy="449.5" r="3.3"
        fill="#ff8c42" stroke="#ffd0a0" stroke-width="1" filter="url(#glowOrange)" opacity="0.9">
        <title>2026-05-06: 9 commits</title></circle><circle cx="1736.6" cy="431.5" r="3.4"
        fill="#ff8c42" stroke="#ffd0a0" stroke-width="1" filter="url(#glowOrange)" opacity="0.9">
        <title>2026-05-07: 13 commits</title></circle><circle cx="1765.1" cy="449.5" r="3.3"
        fill="#ff8c42" stroke="#ffd0a0" stroke-width="1" filter="url(#glowOrange)" opacity="0.9">
        <title>2026-05-08: 9 commits</title></circle><circle cx="1793.5" cy="220.0" r="4.9"
        fill="#ff8c42" stroke="#ffd0a0" stroke-width="1" filter="url(#glowOrange)" opacity="0.9">
        <title>2026-05-09: 60 commits</title></circle><circle cx="1822.0" cy="395.5" r="3.7"
        fill="#ff8c42" stroke="#ffd0a0" stroke-width="1" filter="url(#glowOrange)" opacity="0.9">
        <title>2026-05-10: 21 commits</title></circle>
  <circle cx="86.0" cy="490.0" r="3.5"
        fill="#00d4f5" stroke="#80eeff" stroke-width="0.8" filter="url(#glowCyan)" opacity="0.85">
        <title>2026-03-10: 1 changes/commit</title></circle><circle cx="285.2" cy="489.8" r="3.5"
        fill="#00d4f5" stroke="#80eeff" stroke-width="0.8" filter="url(#glowCyan)" opacity="0.85">
        <title>2026-03-17: 4 changes/commit</title></circle><circle cx="370.6" cy="489.9" r="3.5"
        fill="#00d4f5" stroke="#80eeff" stroke-width="0.8" filter="url(#glowCyan)" opacity="0.85">
        <title>2026-03-20: 3 changes/commit</title></circle><circle cx="427.5" cy="489.0" r="3.5"
        fill="#00d4f5" stroke="#80eeff" stroke-width="0.8" filter="url(#glowCyan)" opacity="0.85">
        <title>2026-03-22: 22 changes/commit</title></circle><circle cx="484.4" cy="297.4" r="3.5"
        fill="#00d4f5" stroke="#80eeff" stroke-width="0.8" filter="url(#glowCyan)" opacity="0.85">
        <title>2026-03-24: 4279 changes/commit</title></circle><circle cx="512.9" cy="489.3" r="3.5"
        fill="#00d4f5" stroke="#80eeff" stroke-width="0.8" filter="url(#glowCyan)" opacity="0.85">
        <title>2026-03-25: 15 changes/commit</title></circle><circle cx="541.3" cy="487.7" r="3.5"
        fill="#00d4f5" stroke="#80eeff" stroke-width="0.8" filter="url(#glowCyan)" opacity="0.85">
        <title>2026-03-26: 52 changes/commit</title></circle><circle cx="569.8" cy="487.7" r="3.5"
        fill="#00d4f5" stroke="#80eeff" stroke-width="0.8" filter="url(#glowCyan)" opacity="0.85">
        <title>2026-03-27: 52 changes/commit</title></circle><circle cx="598.3" cy="438.7" r="3.5"
        fill="#00d4f5" stroke="#80eeff" stroke-width="0.8" filter="url(#glowCyan)" opacity="0.85">
        <title>2026-03-28: 1140 changes/commit</title></circle><circle cx="626.7" cy="479.2" r="3.5"
        fill="#00d4f5" stroke="#80eeff" stroke-width="0.8" filter="url(#glowCyan)" opacity="0.85">
        <title>2026-03-29: 241 changes/commit</title></circle><circle cx="655.2" cy="481.0" r="3.5"
        fill="#00d4f5" stroke="#80eeff" stroke-width="0.8" filter="url(#glowCyan)" opacity="0.85">
        <title>2026-03-30: 201 changes/commit</title></circle><circle cx="683.6" cy="484.6" r="3.5"
        fill="#00d4f5" stroke="#80eeff" stroke-width="0.8" filter="url(#glowCyan)" opacity="0.85">
        <title>2026-03-31: 121 changes/commit</title></circle><circle cx="712.1" cy="483.8" r="3.5"
        fill="#00d4f5" stroke="#80eeff" stroke-width="0.8" filter="url(#glowCyan)" opacity="0.85">
        <title>2026-04-01: 138 changes/commit</title></circle><circle cx="740.6" cy="484.1" r="3.5"
        fill="#00d4f5" stroke="#80eeff" stroke-width="0.8" filter="url(#glowCyan)" opacity="0.85">
        <title>2026-04-02: 130 changes/commit</title></circle><circle cx="769.0" cy="486.5" r="3.5"
        fill="#00d4f5" stroke="#80eeff" stroke-width="0.8" filter="url(#glowCyan)" opacity="0.85">
        <title>2026-04-03: 78 changes/commit</title></circle><circle cx="797.5" cy="482.5" r="3.5"
        fill="#00d4f5" stroke="#80eeff" stroke-width="0.8" filter="url(#glowCyan)" opacity="0.85">
        <title>2026-04-04: 166 changes/commit</title></circle><circle cx="825.9" cy="486.1" r="3.5"
        fill="#00d4f5" stroke="#80eeff" stroke-width="0.8" filter="url(#glowCyan)" opacity="0.85">
        <title>2026-04-05: 86 changes/commit</title></circle><circle cx="854.4" cy="480.5" r="3.5"
        fill="#00d4f5" stroke="#80eeff" stroke-width="0.8" filter="url(#glowCyan)" opacity="0.85">
        <title>2026-04-06: 212 changes/commit</title></circle><circle cx="882.9" cy="487.3" r="3.5"
        fill="#00d4f5" stroke="#80eeff" stroke-width="0.8" filter="url(#glowCyan)" opacity="0.85">
        <title>2026-04-07: 60 changes/commit</title></circle><circle cx="911.3" cy="486.7" r="3.5"
        fill="#00d4f5" stroke="#80eeff" stroke-width="0.8" filter="url(#glowCyan)" opacity="0.85">
        <title>2026-04-08: 74 changes/commit</title></circle><circle cx="939.8" cy="480.0" r="3.5"
        fill="#00d4f5" stroke="#80eeff" stroke-width="0.8" filter="url(#glowCyan)" opacity="0.85">
        <title>2026-04-09: 222 changes/commit</title></circle><circle cx="968.2" cy="479.4" r="3.5"
        fill="#00d4f5" stroke="#80eeff" stroke-width="0.8" filter="url(#glowCyan)" opacity="0.85">
        <title>2026-04-10: 236 changes/commit</title></circle><circle cx="996.7" cy="479.4" r="3.5"
        fill="#00d4f5" stroke="#80eeff" stroke-width="0.8" filter="url(#glowCyan)" opacity="0.85">
        <title>2026-04-11: 236 changes/commit</title></circle><circle cx="1025.1" cy="477.8" r="3.5"
        fill="#00d4f5" stroke="#80eeff" stroke-width="0.8" filter="url(#glowCyan)" opacity="0.85">
        <title>2026-04-12: 271 changes/commit</title></circle><circle cx="1053.6" cy="486.4" r="3.5"
        fill="#00d4f5" stroke="#80eeff" stroke-width="0.8" filter="url(#glowCyan)" opacity="0.85">
        <title>2026-04-13: 80 changes/commit</title></circle><circle cx="1082.1" cy="474.2" r="3.5"
        fill="#00d4f5" stroke="#80eeff" stroke-width="0.8" filter="url(#glowCyan)" opacity="0.85">
        <title>2026-04-14: 351 changes/commit</title></circle><circle cx="1110.5" cy="478.6" r="3.5"
        fill="#00d4f5" stroke="#80eeff" stroke-width="0.8" filter="url(#glowCyan)" opacity="0.85">
        <title>2026-04-15: 254 changes/commit</title></circle><circle cx="1139.0" cy="478.5" r="3.5"
        fill="#00d4f5" stroke="#80eeff" stroke-width="0.8" filter="url(#glowCyan)" opacity="0.85">
        <title>2026-04-16: 256 changes/commit</title></circle><circle cx="1167.4" cy="478.5" r="3.5"
        fill="#00d4f5" stroke="#80eeff" stroke-width="0.8" filter="url(#glowCyan)" opacity="0.85">
        <title>2026-04-17: 256 changes/commit</title></circle><circle cx="1195.9" cy="478.2" r="3.5"
        fill="#00d4f5" stroke="#80eeff" stroke-width="0.8" filter="url(#glowCyan)" opacity="0.85">
        <title>2026-04-18: 262 changes/commit</title></circle><circle cx="1224.4" cy="477.9" r="3.5"
        fill="#00d4f5" stroke="#80eeff" stroke-width="0.8" filter="url(#glowCyan)" opacity="0.85">
        <title>2026-04-19: 270 changes/commit</title></circle><circle cx="1252.8" cy="475.4" r="3.5"
        fill="#00d4f5" stroke="#80eeff" stroke-width="0.8" filter="url(#glowCyan)" opacity="0.85">
        <title>2026-04-20: 325 changes/commit</title></circle><circle cx="1281.3" cy="486.5" r="3.5"
        fill="#00d4f5" stroke="#80eeff" stroke-width="0.8" filter="url(#glowCyan)" opacity="0.85">
        <title>2026-04-21: 78 changes/commit</title></circle><circle cx="1309.7" cy="477.3" r="3.5"
        fill="#00d4f5" stroke="#80eeff" stroke-width="0.8" filter="url(#glowCyan)" opacity="0.85">
        <title>2026-04-22: 282 changes/commit</title></circle><circle cx="1338.2" cy="477.0" r="3.5"
        fill="#00d4f5" stroke="#80eeff" stroke-width="0.8" filter="url(#glowCyan)" opacity="0.85">
        <title>2026-04-23: 288 changes/commit</title></circle><circle cx="1366.7" cy="476.6" r="3.5"
        fill="#00d4f5" stroke="#80eeff" stroke-width="0.8" filter="url(#glowCyan)" opacity="0.85">
        <title>2026-04-24: 298 changes/commit</title></circle><circle cx="1395.1" cy="476.3" r="3.5"
        fill="#00d4f5" stroke="#80eeff" stroke-width="0.8" filter="url(#glowCyan)" opacity="0.85">
        <title>2026-04-25: 304 changes/commit</title></circle><circle cx="1423.6" cy="476.4" r="3.5"
        fill="#00d4f5" stroke="#80eeff" stroke-width="0.8" filter="url(#glowCyan)" opacity="0.85">
        <title>2026-04-26: 302 changes/commit</title></circle><circle cx="1452.0" cy="476.1" r="3.5"
        fill="#00d4f5" stroke="#80eeff" stroke-width="0.8" filter="url(#glowCyan)" opacity="0.85">
        <title>2026-04-27: 310 changes/commit</title></circle><circle cx="1480.5" cy="470.0" r="3.5"
        fill="#00d4f5" stroke="#80eeff" stroke-width="0.8" filter="url(#glowCyan)" opacity="0.85">
        <title>2026-04-28: 445 changes/commit</title></circle><circle cx="1509.0" cy="476.1" r="3.5"
        fill="#00d4f5" stroke="#80eeff" stroke-width="0.8" filter="url(#glowCyan)" opacity="0.85">
        <title>2026-04-29: 308 changes/commit</title></circle><circle cx="1537.4" cy="463.5" r="3.5"
        fill="#00d4f5" stroke="#80eeff" stroke-width="0.8" filter="url(#glowCyan)" opacity="0.85">
        <title>2026-04-30: 588 changes/commit</title></circle><circle cx="1565.9" cy="430.1" r="3.5"
        fill="#00d4f5" stroke="#80eeff" stroke-width="0.8" filter="url(#glowCyan)" opacity="0.85">
        <title>2026-05-01: 1330 changes/commit</title></circle><circle cx="1594.3" cy="486.4" r="3.5"
        fill="#00d4f5" stroke="#80eeff" stroke-width="0.8" filter="url(#glowCyan)" opacity="0.85">
        <title>2026-05-02: 80 changes/commit</title></circle><circle cx="1622.8" cy="474.3" r="3.5"
        fill="#00d4f5" stroke="#80eeff" stroke-width="0.8" filter="url(#glowCyan)" opacity="0.85">
        <title>2026-05-03: 350 changes/commit</title></circle><circle cx="1651.2" cy="182.0" r="3.5"
        fill="#00d4f5" stroke="#80eeff" stroke-width="0.8" filter="url(#glowCyan)" opacity="0.85">
        <title>2026-05-04: 6844 changes/commit</title></circle><circle cx="1679.7" cy="480.1" r="3.5"
        fill="#00d4f5" stroke="#80eeff" stroke-width="0.8" filter="url(#glowCyan)" opacity="0.85">
        <title>2026-05-05: 219 changes/commit</title></circle><circle cx="1708.2" cy="482.2" r="3.5"
        fill="#00d4f5" stroke="#80eeff" stroke-width="0.8" filter="url(#glowCyan)" opacity="0.85">
        <title>2026-05-06: 173 changes/commit</title></circle><circle cx="1736.6" cy="473.2" r="3.5"
        fill="#00d4f5" stroke="#80eeff" stroke-width="0.8" filter="url(#glowCyan)" opacity="0.85">
        <title>2026-05-07: 373 changes/commit</title></circle><circle cx="1765.1" cy="466.6" r="3.5"
        fill="#00d4f5" stroke="#80eeff" stroke-width="0.8" filter="url(#glowCyan)" opacity="0.85">
        <title>2026-05-08: 519 changes/commit</title></circle><circle cx="1793.5" cy="482.3" r="3.5"
        fill="#00d4f5" stroke="#80eeff" stroke-width="0.8" filter="url(#glowCyan)" opacity="0.85">
        <title>2026-05-09: 172 changes/commit</title></circle><circle cx="1822.0" cy="481.9" r="3.5"
        fill="#00d4f5" stroke="#80eeff" stroke-width="0.8" filter="url(#glowCyan)" opacity="0.85">
        <title>2026-05-10: 180 changes/commit</title></circle>
</g>

<!-- ════ ANNOTATIONS ════ -->

        <line x1="598.3" y1="181.0"
          x2="598.3" y2="172.0"
          stroke="#2563eb" stroke-width="1.2" stroke-dasharray="4,4" opacity="0.65"/>
        <rect x="533.3" y="148.0"
          width="130" height="24" rx="6"
          fill="#030e26" stroke="#2563eb" stroke-width="1" opacity="0.96"/>
        <text x="598.3" y="164.0"
          font-size="10" fill="#93c5fd" text-anchor="middle"
          font-family="'Lexend','Segoe UI',sans-serif" font-weight="400"
          letter-spacing="0.5">⬡  Peak · 66 commits</text>
        <line x1="484.4" y1="494" x2="1822.0" y2="494"
          stroke="#f472b6" stroke-width="2.5" stroke-linecap="round" opacity="0.7"/>
        <circle cx="484.4" cy="494" r="3" fill="#f472b6" opacity="0.9"/>
        <circle cx="1822.0" cy="494" r="3" fill="#f472b6" opacity="0.9"/>
        <text x="1153.2" y="508" font-size="8.5" fill="#f472b6"
          text-anchor="middle" font-family="'Lexend','Segoe UI',sans-serif"
          font-weight="400" opacity="0.85">🔥 48-day streak</text>
        <line x1="484.4" y1="130" x2="484.4" y2="490"
          stroke="#f472b6" stroke-width="0.8" stroke-dasharray="3,6" opacity="0.35"/>

<!-- ════ CORNER BRACKETS ════ -->
<path d="M 86 152.0 L 86 130 L 108.0 130"
      fill="none" stroke="#4a90e2" stroke-width="2" stroke-opacity="0.85" stroke-linecap="round"/><path d="M 1822 152.0 L 1822 130 L 1800.0 130"
      fill="none" stroke="#4a90e2" stroke-width="2" stroke-opacity="0.85" stroke-linecap="round"/><path d="M 86 468.0 L 86 490 L 108.0 490"
      fill="none" stroke="#4a90e2" stroke-width="2" stroke-opacity="0.85" stroke-linecap="round"/><path d="M 1822 468.0 L 1822 490 L 1800.0 490"
      fill="none" stroke="#4a90e2" stroke-width="2" stroke-opacity="0.85" stroke-linecap="round"/>

<!-- ════ HEATMAP ════ -->
<text x="950" y="646" font-size="11" fill="#3d7ed4"
    text-anchor="middle" font-family="'Lexend','Segoe UI',sans-serif"
    letter-spacing="3" font-weight="400">CONTRIBUTION  CALENDAR</text><text x="885" y="686"
        font-size="9" fill="#3d7ed4" text-anchor="end"
        font-family="'Lexend','Segoe UI',sans-serif" font-weight="300">M</text><text x="885" y="716"
        font-size="9" fill="#3d7ed4" text-anchor="end"
        font-family="'Lexend','Segoe UI',sans-serif" font-weight="300">W</text><text x="885" y="746"
        font-size="9" fill="#3d7ed4" text-anchor="end"
        font-family="'Lexend','Segoe UI',sans-serif" font-weight="300">F</text><rect x="891.0" y="660.0"
        width="12" height="12" rx="2.5" fill="#0a1630"
        stroke="#0d2464" stroke-width="0.5" stroke-opacity="0.4">
        <title>2026-03-08: 0 commits</title></rect><rect x="891.0" y="675.0"
        width="12" height="12" rx="2.5" fill="#0a1630"
        stroke="#0d2464" stroke-width="0.5" stroke-opacity="0.4">
        <title>2026-03-09: 0 commits</title></rect><rect x="891.0" y="690.0"
        width="12" height="12" rx="2.5" fill="#0d3068"
        stroke="#0d2464" stroke-width="0.5" stroke-opacity="0.4">
        <title>2026-03-10: 1 commits</title></rect><rect x="891.0" y="705.0"
        width="12" height="12" rx="2.5" fill="#0a1630"
        stroke="#0d2464" stroke-width="0.5" stroke-opacity="0.4">
        <title>2026-03-11: 0 commits</title></rect><rect x="891.0" y="720.0"
        width="12" height="12" rx="2.5" fill="#0a1630"
        stroke="#0d2464" stroke-width="0.5" stroke-opacity="0.4">
        <title>2026-03-12: 0 commits</title></rect><rect x="891.0" y="735.0"
        width="12" height="12" rx="2.5" fill="#0a1630"
        stroke="#0d2464" stroke-width="0.5" stroke-opacity="0.4">
        <title>2026-03-13: 0 commits</title></rect><rect x="891.0" y="750.0"
        width="12" height="12" rx="2.5" fill="#0a1630"
        stroke="#0d2464" stroke-width="0.5" stroke-opacity="0.4">
        <title>2026-03-14: 0 commits</title></rect><rect x="906.0" y="660.0"
        width="12" height="12" rx="2.5" fill="#0a1630"
        stroke="#0d2464" stroke-width="0.5" stroke-opacity="0.4">
        <title>2026-03-15: 0 commits</title></rect><rect x="906.0" y="675.0"
        width="12" height="12" rx="2.5" fill="#0a1630"
        stroke="#0d2464" stroke-width="0.5" stroke-opacity="0.4">
        <title>2026-03-16: 0 commits</title></rect><rect x="906.0" y="690.0"
        width="12" height="12" rx="2.5" fill="#0d3068"
        stroke="#0d2464" stroke-width="0.5" stroke-opacity="0.4">
        <title>2026-03-17: 10 commits</title></rect><rect x="906.0" y="705.0"
        width="12" height="12" rx="2.5" fill="#0a1630"
        stroke="#0d2464" stroke-width="0.5" stroke-opacity="0.4">
        <title>2026-03-18: 0 commits</title></rect><rect x="906.0" y="720.0"
        width="12" height="12" rx="2.5" fill="#0a1630"
        stroke="#0d2464" stroke-width="0.5" stroke-opacity="0.4">
        <title>2026-03-19: 0 commits</title></rect><rect x="906.0" y="735.0"
        width="12" height="12" rx="2.5" fill="#1e56a8"
        stroke="#0d2464" stroke-width="0.5" stroke-opacity="0.4">
        <title>2026-03-20: 26 commits</title></rect><rect x="906.0" y="750.0"
        width="12" height="12" rx="2.5" fill="#0a1630"
        stroke="#0d2464" stroke-width="0.5" stroke-opacity="0.4">
        <title>2026-03-21: 0 commits</title></rect><rect x="921.0" y="660.0"
        width="12" height="12" rx="2.5" fill="#0d3068"
        stroke="#0d2464" stroke-width="0.5" stroke-opacity="0.4">
        <title>2026-03-22: 1 commits</title></rect><rect x="921.0" y="675.0"
        width="12" height="12" rx="2.5" fill="#0a1630"
        stroke="#0d2464" stroke-width="0.5" stroke-opacity="0.4">
        <title>2026-03-23: 0 commits</title></rect><rect x="921.0" y="690.0"
        width="12" height="12" rx="2.5" fill="#1e56a8"
        stroke="#0d2464" stroke-width="0.5" stroke-opacity="0.4">
        <title>2026-03-24: 32 commits</title></rect><rect x="921.0" y="705.0"
        width="12" height="12" rx="2.5" fill="#0d3068"
        stroke="#0d2464" stroke-width="0.5" stroke-opacity="0.4">
        <title>2026-03-25: 7 commits</title></rect><rect x="921.0" y="720.0"
        width="12" height="12" rx="2.5" fill="#0d3068"
        stroke="#0d2464" stroke-width="0.5" stroke-opacity="0.4">
        <title>2026-03-26: 3 commits</title></rect><rect x="921.0" y="735.0"
        width="12" height="12" rx="2.5" fill="#0d3068"
        stroke="#0d2464" stroke-width="0.5" stroke-opacity="0.4">
        <title>2026-03-27: 1 commits</title></rect><rect x="921.0" y="750.0"
        width="12" height="12" rx="2.5" fill="#93c5fd"
        stroke="#0d2464" stroke-width="0.5" stroke-opacity="0.4">
        <title>2026-03-28: 66 commits</title></rect><rect x="936.0" y="660.0"
        width="12" height="12" rx="2.5" fill="#3b82f6"
        stroke="#0d2464" stroke-width="0.5" stroke-opacity="0.4">
        <title>2026-03-29: 44 commits</title></rect><rect x="936.0" y="675.0"
        width="12" height="12" rx="2.5" fill="#0d3068"
        stroke="#0d2464" stroke-width="0.5" stroke-opacity="0.4">
        <title>2026-03-30: 2 commits</title></rect><rect x="936.0" y="690.0"
        width="12" height="12" rx="2.5" fill="#0d3068"
        stroke="#0d2464" stroke-width="0.5" stroke-opacity="0.4">
        <title>2026-03-31: 16 commits</title></rect><rect x="936.0" y="705.0"
        width="12" height="12" rx="2.5" fill="#0d3068"
        stroke="#0d2464" stroke-width="0.5" stroke-opacity="0.4">
        <title>2026-04-01: 14 commits</title></rect><rect x="936.0" y="720.0"
        width="12" height="12" rx="2.5" fill="#0d3068"
        stroke="#0d2464" stroke-width="0.5" stroke-opacity="0.4">
        <title>2026-04-02: 2 commits</title></rect><rect x="936.0" y="735.0"
        width="12" height="12" rx="2.5" fill="#1e56a8"
        stroke="#0d2464" stroke-width="0.5" stroke-opacity="0.4">
        <title>2026-04-03: 24 commits</title></rect><rect x="936.0" y="750.0"
        width="12" height="12" rx="2.5" fill="#1e56a8"
        stroke="#0d2464" stroke-width="0.5" stroke-opacity="0.4">
        <title>2026-04-04: 18 commits</title></rect><text x="936.0" y="656" font-size="8.5" fill="#3d7ed4"
        font-family="'Lexend','Segoe UI',sans-serif" font-weight="300">Apr</text><rect x="951.0" y="660.0"
        width="12" height="12" rx="2.5" fill="#0d3068"
        stroke="#0d2464" stroke-width="0.5" stroke-opacity="0.4">
        <title>2026-04-05: 1 commits</title></rect><rect x="951.0" y="675.0"
        width="12" height="12" rx="2.5" fill="#0d3068"
        stroke="#0d2464" stroke-width="0.5" stroke-opacity="0.4">
        <title>2026-04-06: 1 commits</title></rect><rect x="951.0" y="690.0"
        width="12" height="12" rx="2.5" fill="#0d3068"
        stroke="#0d2464" stroke-width="0.5" stroke-opacity="0.4">
        <title>2026-04-07: 9 commits</title></rect><rect x="951.0" y="705.0"
        width="12" height="12" rx="2.5" fill="#0d3068"
        stroke="#0d2464" stroke-width="0.5" stroke-opacity="0.4">
        <title>2026-04-08: 1 commits</title></rect><rect x="951.0" y="720.0"
        width="12" height="12" rx="2.5" fill="#0d3068"
        stroke="#0d2464" stroke-width="0.5" stroke-opacity="0.4">
        <title>2026-04-09: 1 commits</title></rect><rect x="951.0" y="735.0"
        width="12" height="12" rx="2.5" fill="#0d3068"
        stroke="#0d2464" stroke-width="0.5" stroke-opacity="0.4">
        <title>2026-04-10: 1 commits</title></rect><rect x="951.0" y="750.0"
        width="12" height="12" rx="2.5" fill="#0d3068"
        stroke="#0d2464" stroke-width="0.5" stroke-opacity="0.4">
        <title>2026-04-11: 1 commits</title></rect><rect x="966.0" y="660.0"
        width="12" height="12" rx="2.5" fill="#0d3068"
        stroke="#0d2464" stroke-width="0.5" stroke-opacity="0.4">
        <title>2026-04-12: 4 commits</title></rect><rect x="966.0" y="675.0"
        width="12" height="12" rx="2.5" fill="#0d3068"
        stroke="#0d2464" stroke-width="0.5" stroke-opacity="0.4">
        <title>2026-04-13: 1 commits</title></rect><rect x="966.0" y="690.0"
        width="12" height="12" rx="2.5" fill="#0d3068"
        stroke="#0d2464" stroke-width="0.5" stroke-opacity="0.4">
        <title>2026-04-14: 1 commits</title></rect><rect x="966.0" y="705.0"
        width="12" height="12" rx="2.5" fill="#0d3068"
        stroke="#0d2464" stroke-width="0.5" stroke-opacity="0.4">
        <title>2026-04-15: 1 commits</title></rect><rect x="966.0" y="720.0"
        width="12" height="12" rx="2.5" fill="#0d3068"
        stroke="#0d2464" stroke-width="0.5" stroke-opacity="0.4">
        <title>2026-04-16: 1 commits</title></rect><rect x="966.0" y="735.0"
        width="12" height="12" rx="2.5" fill="#0d3068"
        stroke="#0d2464" stroke-width="0.5" stroke-opacity="0.4">
        <title>2026-04-17: 1 commits</title></rect><rect x="966.0" y="750.0"
        width="12" height="12" rx="2.5" fill="#0d3068"
        stroke="#0d2464" stroke-width="0.5" stroke-opacity="0.4">
        <title>2026-04-18: 1 commits</title></rect><rect x="981.0" y="660.0"
        width="12" height="12" rx="2.5" fill="#0d3068"
        stroke="#0d2464" stroke-width="0.5" stroke-opacity="0.4">
        <title>2026-04-19: 1 commits</title></rect><rect x="981.0" y="675.0"
        width="12" height="12" rx="2.5" fill="#0d3068"
        stroke="#0d2464" stroke-width="0.5" stroke-opacity="0.4">
        <title>2026-04-20: 3 commits</title></rect><rect x="981.0" y="690.0"
        width="12" height="12" rx="2.5" fill="#0d3068"
        stroke="#0d2464" stroke-width="0.5" stroke-opacity="0.4">
        <title>2026-04-21: 1 commits</title></rect><rect x="981.0" y="705.0"
        width="12" height="12" rx="2.5" fill="#0d3068"
        stroke="#0d2464" stroke-width="0.5" stroke-opacity="0.4">
        <title>2026-04-22: 1 commits</title></rect><rect x="981.0" y="720.0"
        width="12" height="12" rx="2.5" fill="#0d3068"
        stroke="#0d2464" stroke-width="0.5" stroke-opacity="0.4">
        <title>2026-04-23: 1 commits</title></rect><rect x="981.0" y="735.0"
        width="12" height="12" rx="2.5" fill="#0d3068"
        stroke="#0d2464" stroke-width="0.5" stroke-opacity="0.4">
        <title>2026-04-24: 1 commits</title></rect><rect x="981.0" y="750.0"
        width="12" height="12" rx="2.5" fill="#0d3068"
        stroke="#0d2464" stroke-width="0.5" stroke-opacity="0.4">
        <title>2026-04-25: 1 commits</title></rect><rect x="996.0" y="660.0"
        width="12" height="12" rx="2.5" fill="#0d3068"
        stroke="#0d2464" stroke-width="0.5" stroke-opacity="0.4">
        <title>2026-04-26: 1 commits</title></rect><rect x="996.0" y="675.0"
        width="12" height="12" rx="2.5" fill="#0d3068"
        stroke="#0d2464" stroke-width="0.5" stroke-opacity="0.4">
        <title>2026-04-27: 1 commits</title></rect><rect x="996.0" y="690.0"
        width="12" height="12" rx="2.5" fill="#0d3068"
        stroke="#0d2464" stroke-width="0.5" stroke-opacity="0.4">
        <title>2026-04-28: 1 commits</title></rect><rect x="996.0" y="705.0"
        width="12" height="12" rx="2.5" fill="#0d3068"
        stroke="#0d2464" stroke-width="0.5" stroke-opacity="0.4">
        <title>2026-04-29: 1 commits</title></rect><rect x="996.0" y="720.0"
        width="12" height="12" rx="2.5" fill="#0d3068"
        stroke="#0d2464" stroke-width="0.5" stroke-opacity="0.4">
        <title>2026-04-30: 1 commits</title></rect><rect x="996.0" y="735.0"
        width="12" height="12" rx="2.5" fill="#0d3068"
        stroke="#0d2464" stroke-width="0.5" stroke-opacity="0.4">
        <title>2026-05-01: 6 commits</title></rect><rect x="996.0" y="750.0"
        width="12" height="12" rx="2.5" fill="#0d3068"
        stroke="#0d2464" stroke-width="0.5" stroke-opacity="0.4">
        <title>2026-05-02: 1 commits</title></rect><text x="996.0" y="656" font-size="8.5" fill="#3d7ed4"
        font-family="'Lexend','Segoe UI',sans-serif" font-weight="300">May</text><rect x="1011.0" y="660.0"
        width="12" height="12" rx="2.5" fill="#3b82f6"
        stroke="#0d2464" stroke-width="0.5" stroke-opacity="0.4">
        <title>2026-05-03: 39 commits</title></rect><rect x="1011.0" y="675.0"
        width="12" height="12" rx="2.5" fill="#0d3068"
        stroke="#0d2464" stroke-width="0.5" stroke-opacity="0.4">
        <title>2026-05-04: 10 commits</title></rect><rect x="1011.0" y="690.0"
        width="12" height="12" rx="2.5" fill="#3b82f6"
        stroke="#0d2464" stroke-width="0.5" stroke-opacity="0.4">
        <title>2026-05-05: 37 commits</title></rect><rect x="1011.0" y="705.0"
        width="12" height="12" rx="2.5" fill="#0d3068"
        stroke="#0d2464" stroke-width="0.5" stroke-opacity="0.4">
        <title>2026-05-06: 9 commits</title></rect><rect x="1011.0" y="720.0"
        width="12" height="12" rx="2.5" fill="#0d3068"
        stroke="#0d2464" stroke-width="0.5" stroke-opacity="0.4">
        <title>2026-05-07: 13 commits</title></rect><rect x="1011.0" y="735.0"
        width="12" height="12" rx="2.5" fill="#0d3068"
        stroke="#0d2464" stroke-width="0.5" stroke-opacity="0.4">
        <title>2026-05-08: 9 commits</title></rect><rect x="1011.0" y="750.0"
        width="12" height="12" rx="2.5" fill="#93c5fd"
        stroke="#0d2464" stroke-width="0.5" stroke-opacity="0.4">
        <title>2026-05-09: 60 commits</title></rect><rect x="1026.0" y="660.0"
        width="12" height="12" rx="2.5" fill="#1e56a8"
        stroke="#0d2464" stroke-width="0.5" stroke-opacity="0.4">
        <title>2026-05-10: 21 commits</title></rect><rect x="1026.0" y="675.0"
        width="12" height="12" rx="2.5" fill="#0a1630"
        stroke="#0d2464" stroke-width="0.5" stroke-opacity="0.4">
        <title>2026-05-11: 0 commits</title></rect><rect x="1026.0" y="690.0"
        width="12" height="12" rx="2.5" fill="#0a1630"
        stroke="#0d2464" stroke-width="0.5" stroke-opacity="0.4">
        <title>2026-05-12: 0 commits</title></rect><rect x="1026.0" y="705.0"
        width="12" height="12" rx="2.5" fill="#0a1630"
        stroke="#0d2464" stroke-width="0.5" stroke-opacity="0.4">
        <title>2026-05-13: 0 commits</title></rect><rect x="1026.0" y="720.0"
        width="12" height="12" rx="2.5" fill="#0a1630"
        stroke="#0d2464" stroke-width="0.5" stroke-opacity="0.4">
        <title>2026-05-14: 0 commits</title></rect><rect x="1026.0" y="735.0"
        width="12" height="12" rx="2.5" fill="#0a1630"
        stroke="#0d2464" stroke-width="0.5" stroke-opacity="0.4">
        <title>2026-05-15: 0 commits</title></rect><rect x="1026.0" y="750.0"
        width="12" height="12" rx="2.5" fill="#0a1630"
        stroke="#0d2464" stroke-width="0.5" stroke-opacity="0.4">
        <title>2026-05-16: 0 commits</title></rect>

<!-- ════ BOTTOM PANELS ════ -->

    <rect x="86" y="823" width="320" height="110"
      rx="4" fill="#030e26" fill-opacity="0.6" stroke="#1a3f7a" stroke-width="0.8"/>
    <text x="246" y="819" font-size="8" fill="#3d7ed4"
      text-anchor="middle" font-family="'Lexend','Segoe UI',sans-serif"
      letter-spacing="2" font-weight="300">OVERVIEW</text>
    <g clip-path="url(#minimapClip)">
      <path d="M 86.00 931.58 C 86.87 931.82, 89.50 932.76, 91.25 933.00 C 92.99 933.24, 94.74 933.00, 96.49 933.00 C 98.24 933.00, 99.99 933.00, 101.74 933.00 C 103.49 933.00, 105.23 933.00, 106.98 933.00 C 108.73 933.00, 110.48 933.00, 112.23 933.00 C 113.98 933.00, 115.73 935.36, 117.48 933.00 C 119.22 930.64, 120.97 918.83, 122.72 918.83 C 124.47 918.83, 126.22 930.64, 127.97 933.00 C 129.72 935.36, 131.46 939.14, 133.21 933.00 C 134.96 926.86, 136.71 896.17, 138.46 896.17 C 140.21 896.17, 141.96 927.10, 143.70 933.00 C 145.45 938.90, 147.20 931.58, 148.95 931.58 C 150.70 931.58, 152.45 940.32, 154.20 933.00 C 155.95 925.68, 157.69 889.32, 159.44 887.67 C 161.19 886.01, 162.94 916.24, 164.69 923.08 C 166.44 929.93, 168.19 927.33, 169.93 928.75 C 171.68 930.17, 173.43 946.46, 175.18 931.58 C 176.93 916.71, 178.68 849.65, 180.43 839.50 C 182.17 829.35, 183.92 855.56, 185.67 870.67 C 187.42 885.78, 189.17 923.56, 190.92 930.17 C 192.67 936.78, 194.42 913.17, 196.16 910.33 C 197.91 907.50, 199.66 909.86, 201.41 913.17 C 203.16 916.47, 204.91 932.53, 206.66 930.17 C 208.40 927.81, 210.15 902.78, 211.90 899.00 C 213.65 895.22, 215.40 902.07, 217.15 907.50 C 218.90 912.93, 220.64 927.57, 222.39 931.58 C 224.14 935.60, 225.89 933.47, 227.64 931.58 C 229.39 929.69, 231.14 920.25, 232.89 920.25 C 234.63 920.25, 236.38 929.69, 238.13 931.58 C 239.88 933.47, 241.63 931.58, 243.38 931.58 C 245.13 931.58, 246.87 931.58, 248.62 931.58 C 250.37 931.58, 252.12 932.29, 253.87 931.58 C 255.62 930.88, 257.37 927.33, 259.11 927.33 C 260.86 927.33, 262.61 930.88, 264.36 931.58 C 266.11 932.29, 267.86 931.58, 269.61 931.58 C 271.36 931.58, 273.10 931.58, 274.85 931.58 C 276.60 931.58, 278.35 931.58, 280.10 931.58 C 281.85 931.58, 283.60 931.58, 285.34 931.58 C 287.09 931.58, 288.84 931.58, 290.59 931.58 C 292.34 931.58, 294.09 932.06, 295.84 931.58 C 297.58 931.11, 299.33 928.75, 301.08 928.75 C 302.83 928.75, 304.58 931.11, 306.33 931.58 C 308.08 932.06, 309.83 931.58, 311.57 931.58 C 313.32 931.58, 315.07 931.58, 316.82 931.58 C 318.57 931.58, 320.32 931.58, 322.07 931.58 C 323.81 931.58, 325.56 931.58, 327.31 931.58 C 329.06 931.58, 330.81 931.58, 332.56 931.58 C 334.31 931.58, 336.05 931.58, 337.80 931.58 C 339.55 931.58, 341.30 931.58, 343.05 931.58 C 344.80 931.58, 346.55 931.58, 348.30 931.58 C 350.04 931.58, 351.79 932.76, 353.54 931.58 C 355.29 930.40, 357.04 924.50, 358.79 924.50 C 360.54 924.50, 362.28 939.38, 364.03 931.58 C 365.78 923.79, 367.53 879.88, 369.28 877.75 C 371.03 875.63, 372.78 918.36, 374.52 918.83 C 376.27 919.31, 378.02 880.35, 379.77 880.58 C 381.52 880.82, 383.27 914.58, 385.02 920.25 C 386.77 925.92, 388.51 914.58, 390.26 914.58 C 392.01 914.58, 393.76 931.35, 395.51 920.25 C 397.26 909.15, 399.01 850.83, 400.75 848.00 C 402.50 845.17, 405.13 894.04, 406.00 903.25 L 406.00 933 L 86.00 933 Z" fill="#4a90e2" fill-opacity="0.15"/>
      <path d="M 86.00 931.58 C 86.87 931.82, 89.50 932.76, 91.25 933.00 C 92.99 933.24, 94.74 933.00, 96.49 933.00 C 98.24 933.00, 99.99 933.00, 101.74 933.00 C 103.49 933.00, 105.23 933.00, 106.98 933.00 C 108.73 933.00, 110.48 933.00, 112.23 933.00 C 113.98 933.00, 115.73 935.36, 117.48 933.00 C 119.22 930.64, 120.97 918.83, 122.72 918.83 C 124.47 918.83, 126.22 930.64, 127.97 933.00 C 129.72 935.36, 131.46 939.14, 133.21 933.00 C 134.96 926.86, 136.71 896.17, 138.46 896.17 C 140.21 896.17, 141.96 927.10, 143.70 933.00 C 145.45 938.90, 147.20 931.58, 148.95 931.58 C 150.70 931.58, 152.45 940.32, 154.20 933.00 C 155.95 925.68, 157.69 889.32, 159.44 887.67 C 161.19 886.01, 162.94 916.24, 164.69 923.08 C 166.44 929.93, 168.19 927.33, 169.93 928.75 C 171.68 930.17, 173.43 946.46, 175.18 931.58 C 176.93 916.71, 178.68 849.65, 180.43 839.50 C 182.17 829.35, 183.92 855.56, 185.67 870.67 C 187.42 885.78, 189.17 923.56, 190.92 930.17 C 192.67 936.78, 194.42 913.17, 196.16 910.33 C 197.91 907.50, 199.66 909.86, 201.41 913.17 C 203.16 916.47, 204.91 932.53, 206.66 930.17 C 208.40 927.81, 210.15 902.78, 211.90 899.00 C 213.65 895.22, 215.40 902.07, 217.15 907.50 C 218.90 912.93, 220.64 927.57, 222.39 931.58 C 224.14 935.60, 225.89 933.47, 227.64 931.58 C 229.39 929.69, 231.14 920.25, 232.89 920.25 C 234.63 920.25, 236.38 929.69, 238.13 931.58 C 239.88 933.47, 241.63 931.58, 243.38 931.58 C 245.13 931.58, 246.87 931.58, 248.62 931.58 C 250.37 931.58, 252.12 932.29, 253.87 931.58 C 255.62 930.88, 257.37 927.33, 259.11 927.33 C 260.86 927.33, 262.61 930.88, 264.36 931.58 C 266.11 932.29, 267.86 931.58, 269.61 931.58 C 271.36 931.58, 273.10 931.58, 274.85 931.58 C 276.60 931.58, 278.35 931.58, 280.10 931.58 C 281.85 931.58, 283.60 931.58, 285.34 931.58 C 287.09 931.58, 288.84 931.58, 290.59 931.58 C 292.34 931.58, 294.09 932.06, 295.84 931.58 C 297.58 931.11, 299.33 928.75, 301.08 928.75 C 302.83 928.75, 304.58 931.11, 306.33 931.58 C 308.08 932.06, 309.83 931.58, 311.57 931.58 C 313.32 931.58, 315.07 931.58, 316.82 931.58 C 318.57 931.58, 320.32 931.58, 322.07 931.58 C 323.81 931.58, 325.56 931.58, 327.31 931.58 C 329.06 931.58, 330.81 931.58, 332.56 931.58 C 334.31 931.58, 336.05 931.58, 337.80 931.58 C 339.55 931.58, 341.30 931.58, 343.05 931.58 C 344.80 931.58, 346.55 931.58, 348.30 931.58 C 350.04 931.58, 351.79 932.76, 353.54 931.58 C 355.29 930.40, 357.04 924.50, 358.79 924.50 C 360.54 924.50, 362.28 939.38, 364.03 931.58 C 365.78 923.79, 367.53 879.88, 369.28 877.75 C 371.03 875.63, 372.78 918.36, 374.52 918.83 C 376.27 919.31, 378.02 880.35, 379.77 880.58 C 381.52 880.82, 383.27 914.58, 385.02 920.25 C 386.77 925.92, 388.51 914.58, 390.26 914.58 C 392.01 914.58, 393.76 931.35, 395.51 920.25 C 397.26 909.15, 399.01 850.83, 400.75 848.00 C 402.50 845.17, 405.13 894.04, 406.00 903.25" fill="none" stroke="#4a90e2" stroke-width="1.5" stroke-opacity="0.7"/>
    </g>
    <clipPath id="minimapClip">
      <rect x="86" y="823" width="320" height="110" rx="4"/>
    </clipPath><path d="M 1682.00 854.90
      L 1682.00 836.00
      A 42 42 0 1 1 1657.99 912.46
      L 1668.79 896.95
      A 23.1 23.1 0 1 0 1682.00 854.90 Z"
      fill="#4a90e2" fill-opacity="0.8" stroke="#030e26" stroke-width="1.5">
      <title>Kieran Lucas: 305 commits (60%)</title></path><path d="M 1668.79 896.95
      L 1657.99 912.46
      A 42 42 0 0 1 1640.17 881.74
      L 1658.99 880.06
      A 23.1 23.1 0 0 0 1668.79 896.95 Z"
      fill="#ff8c42" fill-opacity="0.8" stroke="#030e26" stroke-width="1.5">
      <title>stillqhuy: 71 commits (14%)</title></path><path d="M 1658.99 880.06
      L 1640.17 881.74
      A 42 42 0 0 1 1650.83 849.85
      L 1664.86 862.51
      A 23.1 23.1 0 0 0 1658.99 880.06 Z"
      fill="#00d4f5" fill-opacity="0.8" stroke="#030e26" stroke-width="1.5">
      <title>HumaNormal: 67 commits (13%)</title></path><path d="M 1664.86 862.51
      L 1650.83 849.85
      A 42 42 0 0 1 1678.90 836.11
      L 1680.30 854.96
      A 23.1 23.1 0 0 0 1664.86 862.51 Z"
      fill="#22c55e" fill-opacity="0.8" stroke="#030e26" stroke-width="1.5">
      <title>github-actions: 62 commits (12%)</title></path><path d="M 1680.30 854.96
      L 1678.90 836.11
      A 42 42 0 0 1 1682.00 836.00
      L 1682.00 854.90
      A 23.1 23.1 0 0 0 1680.30 854.96 Z"
      fill="#ef4444" fill-opacity="0.8" stroke="#030e26" stroke-width="1.5">
      <title>Nguyễn Đinh Việt Đức: 6 commits (1%)</title></path><text x="1682" y="874" font-size="9" fill="#3d7ed4" text-anchor="middle"
    font-family="'Lexend','Segoe UI',sans-serif" letter-spacing="1.5" font-weight="300">AUTHORS</text><text x="1682" y="892" font-size="16" fill="#cce8ff" text-anchor="middle"
    font-family="'Lexend','Segoe UI',sans-serif" font-weight="600">5</text><rect x="1740" y="830" width="8" height="8" rx="2" fill="#4a90e2" opacity="0.85"/><text x="1754" y="838" font-size="9.5" fill="#3d7ed4"
      font-family="'Lexend','Segoe UI',sans-serif" font-weight="300">Kieran Lucas (305)</text><rect x="1740" y="848" width="8" height="8" rx="2" fill="#ff8c42" opacity="0.85"/><text x="1754" y="856" font-size="9.5" fill="#3d7ed4"
      font-family="'Lexend','Segoe UI',sans-serif" font-weight="300">stillqhuy (71)</text><rect x="1740" y="866" width="8" height="8" rx="2" fill="#00d4f5" opacity="0.85"/><text x="1754" y="874" font-size="9.5" fill="#3d7ed4"
      font-family="'Lexend','Segoe UI',sans-serif" font-weight="300">HumaNormal (67)</text><rect x="1740" y="884" width="8" height="8" rx="2" fill="#22c55e" opacity="0.85"/><text x="1754" y="892" font-size="9.5" fill="#3d7ed4"
      font-family="'Lexend','Segoe UI',sans-serif" font-weight="300">github-actions (62)</text><rect x="1740" y="902" width="8" height="8" rx="2" fill="#ef4444" opacity="0.85"/><text x="1754" y="910" font-size="9.5" fill="#3d7ed4"
      font-family="'Lexend','Segoe UI',sans-serif" font-weight="300">Nguyễn Đinh … (6)</text>

<!-- ════ WAVES ════ -->
<path d="M 0 963 Q 118.8 956.0 237.5 963 Q 356.3 956.0 475.0 963 Q 593.8 956.0 712.5 963 Q 831.3 956.0 950.0 963 Q 1068.8 956.0 1187.5 963 Q 1306.3 956.0 1425.0 963 Q 1543.8 956.0 1662.5 963 Q 1781.3 956.0 1900.0 963" fill="none" stroke="#1948a0" stroke-width="1.2" stroke-opacity="0.35"/>
<path d="M 0 958 Q 118.8 952.5 237.5 958 Q 356.3 952.5 475.0 958 Q 593.8 952.5 712.5 958 Q 831.3 952.5 950.0 958 Q 1068.8 952.5 1187.5 958 Q 1306.3 952.5 1425.0 958 Q 1543.8 952.5 1662.5 958 Q 1781.3 952.5 1900.0 958" fill="none" stroke="#1948a0" stroke-width="1" stroke-opacity="0.29"/>
<path d="M 0 953 Q 118.8 949.0 237.5 953 Q 356.3 949.0 475.0 953 Q 593.8 949.0 712.5 953 Q 831.3 949.0 950.0 953 Q 1068.8 949.0 1187.5 953 Q 1306.3 949.0 1425.0 953 Q 1543.8 949.0 1662.5 953 Q 1781.3 949.0 1900.0 953" fill="none" stroke="#1948a0" stroke-width="0.7999999999999999" stroke-opacity="0.22999999999999998"/>
<path d="M 0 948 Q 118.8 945.5 237.5 948 Q 356.3 945.5 475.0 948 Q 593.8 945.5 712.5 948 Q 831.3 945.5 950.0 948 Q 1068.8 945.5 1187.5 948 Q 1306.3 945.5 1425.0 948 Q 1543.8 945.5 1662.5 948 Q 1781.3 945.5 1900.0 948" fill="none" stroke="#1948a0" stroke-width="0.5999999999999999" stroke-opacity="0.16999999999999998"/>

</svg>